<?xml version="1.0" encoding="utf-8"?>
<!-- Generator: Adobe Illustrator 24.0.2, SVG Export Plug-In . SVG Version: 6.00 Build 0)  -->
<svg version="1.1" id="Layer_1" xmlns="http://www.w3.org/2000/svg" xmlns:xlink="http://www.w3.org/1999/xlink" x="0px" y="0px"
	 viewBox="0 0 500 275" style="enable-background:new 0 0 500 275;" xml:space="preserve">
<style type="text/css">
	.st0{fill:none;stroke:#000000;stroke-width:1.5;stroke-miterlimit:10;}
	.st1{fill:none;stroke:#000000;stroke-width:1.5;stroke-linecap:round;stroke-linejoin:round;stroke-miterlimit:10;}
	.st2{fill:#BDA8D7;stroke:#000000;stroke-width:1.5;stroke-miterlimit:10;}
	.st3{fill:#CCCCCC;stroke:#000000;stroke-width:1.5;stroke-miterlimit:10;}
	.st4{fill:#C7D7A8;stroke:#000000;stroke-width:1.5;stroke-miterlimit:10;}
	.st5{fill:none;stroke:#0071BC;stroke-width:1.5;stroke-linecap:round;stroke-linejoin:round;}
	.st6{fill:none;stroke:#0071BC;stroke-width:1.5;stroke-linecap:round;stroke-linejoin:round;stroke-dasharray:6.2609,12.5217;}
	.st7{fill:#0071BC;stroke:#000000;stroke-width:1.5;stroke-miterlimit:10;}
	.st8{fill:#66AAD7;stroke:#000000;stroke-width:1.5;stroke-miterlimit:10;}
	.st9{fill:none;stroke:#0071BC;stroke-width:1.5;stroke-linecap:round;stroke-linejoin:round;stroke-dasharray:5.6429,11.2857;}
	.st10{fill:#D78066;stroke:#000000;stroke-width:1.5;stroke-miterlimit:10;}
	.st11{fill:none;stroke:#000000;stroke-width:1.5;stroke-linecap:round;stroke-linejoin:round;}
</style>
<g>
	<rect x="64.2" y="10.5" class="st0" width="375" height="200"/>
	<g>
		<path d="M52.2,223.6c-0.6,0-1-0.1-1.4-0.3s-0.7-0.4-1-0.7l0.7-0.6c0.2,0.2,0.5,0.4,0.8,0.6s0.6,0.2,1,0.2c0.4,0,0.6-0.1,0.9-0.2
			c0.2-0.1,0.3-0.3,0.3-0.6c0-0.1,0-0.2-0.1-0.3c0-0.1-0.1-0.1-0.2-0.2s-0.2-0.1-0.3-0.1c-0.1,0-0.2,0-0.3-0.1l-0.8-0.1
			c-0.2,0-0.4-0.1-0.6-0.1c-0.2-0.1-0.4-0.1-0.6-0.3c-0.2-0.1-0.3-0.3-0.4-0.4c-0.1-0.2-0.2-0.4-0.2-0.7c0-0.5,0.2-0.9,0.6-1.2
			s0.9-0.4,1.6-0.4c0.5,0,0.9,0.1,1.2,0.2c0.3,0.1,0.6,0.3,0.9,0.6l-0.6,0.6c-0.1-0.2-0.3-0.3-0.6-0.4s-0.6-0.2-1-0.2
			c-0.7,0-1.1,0.2-1.1,0.7c0,0.2,0.1,0.4,0.2,0.5c0.2,0.1,0.3,0.1,0.6,0.2l0.8,0.1c0.2,0,0.4,0.1,0.6,0.1c0.2,0.1,0.4,0.1,0.6,0.2
			c0.2,0.1,0.3,0.3,0.4,0.4c0.1,0.2,0.2,0.4,0.2,0.7c0,0.5-0.2,0.9-0.6,1.2S52.9,223.6,52.2,223.6z"/>
		<path d="M58.5,223.5c-0.5,0-0.8-0.1-1-0.4s-0.3-0.6-0.3-0.9v-3h-1.6v-0.9h1.1c0.2,0,0.3,0,0.4-0.1c0.1-0.1,0.1-0.2,0.1-0.4v-1.3h1
			v1.8h2.2v0.9h-2.2v3.4h2.2v0.9H58.5z"/>
		<path d="M66.1,223.5c-0.3,0-0.5-0.1-0.7-0.2s-0.3-0.4-0.3-0.6H65c-0.1,0.3-0.3,0.6-0.5,0.7c-0.3,0.2-0.6,0.3-1,0.3
			c-0.5,0-0.9-0.1-1.3-0.4c-0.3-0.3-0.5-0.7-0.5-1.1c0-0.5,0.2-0.9,0.6-1.1c0.4-0.3,0.9-0.4,1.7-0.4h1v-0.4c0-0.7-0.4-1.1-1.1-1.1
			c-0.3,0-0.6,0.1-0.8,0.2c-0.2,0.1-0.4,0.3-0.5,0.5l-0.7-0.5c0.1-0.3,0.4-0.5,0.7-0.7c0.3-0.2,0.8-0.3,1.3-0.3
			c0.7,0,1.2,0.2,1.5,0.5c0.4,0.3,0.6,0.8,0.6,1.4v2.6h0.6v0.9H66.1z M63.8,222.8c0.4,0,0.6-0.1,0.9-0.2s0.3-0.4,0.3-0.6v-0.7h-1
			c-0.8,0-1.2,0.2-1.2,0.7v0.2c0,0.2,0.1,0.4,0.2,0.5C63.3,222.7,63.5,222.8,63.8,222.8z"/>
		<path d="M70.5,223.5c-0.5,0-0.8-0.1-1-0.4s-0.3-0.6-0.3-0.9v-3h-1.6v-0.9h1.1c0.2,0,0.3,0,0.4-0.1c0.1-0.1,0.1-0.2,0.1-0.4v-1.3h1
			v1.8h2.2v0.9h-2.2v3.4h2.2v0.9H70.5z"/>
		<path d="M74.2,222.6h1.8v-3.4h-1.8v-0.9H77v4.3h1.6v0.9h-4.5V222.6z M76.5,217.4c-0.3,0-0.5-0.1-0.6-0.2c-0.1-0.1-0.2-0.3-0.2-0.4
			v-0.2c0-0.2,0.1-0.3,0.2-0.4c0.1-0.1,0.3-0.2,0.6-0.2c0.3,0,0.5,0.1,0.6,0.2s0.2,0.3,0.2,0.4v0.2c0,0.2-0.1,0.3-0.2,0.4
			S76.7,217.4,76.5,217.4z"/>
		<path d="M82.2,223.6c-0.6,0-1-0.1-1.4-0.3s-0.7-0.4-1-0.7l0.7-0.6c0.2,0.2,0.5,0.4,0.8,0.6s0.6,0.2,1,0.2c0.4,0,0.6-0.1,0.9-0.2
			c0.2-0.1,0.3-0.3,0.3-0.6c0-0.1,0-0.2-0.1-0.3c0-0.1-0.1-0.1-0.2-0.2s-0.2-0.1-0.3-0.1c-0.1,0-0.2,0-0.3-0.1l-0.8-0.1
			c-0.2,0-0.4-0.1-0.6-0.1c-0.2-0.1-0.4-0.1-0.6-0.3c-0.2-0.1-0.3-0.3-0.4-0.4c-0.1-0.2-0.2-0.4-0.2-0.7c0-0.5,0.2-0.9,0.6-1.2
			s0.9-0.4,1.6-0.4c0.5,0,0.9,0.1,1.2,0.2c0.3,0.1,0.6,0.3,0.9,0.6l-0.6,0.6c-0.1-0.2-0.3-0.3-0.6-0.4s-0.6-0.2-1-0.2
			c-0.7,0-1.1,0.2-1.1,0.7c0,0.2,0.1,0.4,0.2,0.5c0.2,0.1,0.3,0.1,0.6,0.2l0.8,0.1c0.2,0,0.4,0.1,0.6,0.1c0.2,0.1,0.4,0.1,0.6,0.2
			c0.2,0.1,0.3,0.3,0.4,0.4c0.1,0.2,0.2,0.4,0.2,0.7c0,0.5-0.2,0.9-0.6,1.2S82.9,223.6,82.2,223.6z"/>
		<path d="M88.5,223.5c-0.5,0-0.8-0.1-1-0.4s-0.3-0.6-0.3-0.9v-3h-1.6v-0.9h1.1c0.2,0,0.3,0,0.4-0.1c0.1-0.1,0.1-0.2,0.1-0.4v-1.3h1
			v1.8h2.2v0.9h-2.2v3.4h2.2v0.9H88.5z"/>
		<path d="M92.2,222.6h1.8v-3.4h-1.8v-0.9H95v4.3h1.6v0.9h-4.5V222.6z M94.5,217.4c-0.3,0-0.5-0.1-0.6-0.2c-0.1-0.1-0.2-0.3-0.2-0.4
			v-0.2c0-0.2,0.1-0.3,0.2-0.4c0.1-0.1,0.3-0.2,0.6-0.2c0.3,0,0.5,0.1,0.6,0.2s0.2,0.3,0.2,0.4v0.2c0,0.2-0.1,0.3-0.2,0.4
			S94.7,217.4,94.5,217.4z"/>
		<path d="M100.3,223.6c-0.4,0-0.7-0.1-1-0.2c-0.3-0.1-0.6-0.3-0.8-0.5c-0.2-0.2-0.4-0.5-0.5-0.8c-0.1-0.3-0.2-0.7-0.2-1.1
			s0.1-0.8,0.2-1.1c0.1-0.3,0.3-0.6,0.5-0.8c0.2-0.2,0.5-0.4,0.8-0.5c0.3-0.1,0.6-0.2,1-0.2c0.5,0,1,0.1,1.3,0.3
			c0.3,0.2,0.6,0.5,0.7,0.9l-0.9,0.5c-0.1-0.2-0.2-0.4-0.4-0.6c-0.2-0.1-0.4-0.2-0.7-0.2c-0.4,0-0.7,0.1-1,0.4
			c-0.2,0.3-0.3,0.6-0.3,1v0.9c0,0.4,0.1,0.7,0.3,1c0.2,0.3,0.6,0.4,1,0.4c0.3,0,0.6-0.1,0.8-0.2c0.2-0.1,0.4-0.3,0.5-0.6l0.8,0.5
			c-0.2,0.4-0.4,0.7-0.8,0.9C101.3,223.5,100.9,223.6,100.3,223.6z"/>
		<path d="M106.2,223.6c-0.6,0-1-0.1-1.4-0.3s-0.7-0.4-1-0.7l0.7-0.6c0.2,0.2,0.5,0.4,0.8,0.6s0.6,0.2,1,0.2c0.4,0,0.6-0.1,0.9-0.2
			c0.2-0.1,0.3-0.3,0.3-0.6c0-0.1,0-0.2-0.1-0.3c0-0.1-0.1-0.1-0.2-0.2s-0.2-0.1-0.3-0.1c-0.1,0-0.2,0-0.3-0.1l-0.8-0.1
			c-0.2,0-0.4-0.1-0.6-0.1c-0.2-0.1-0.4-0.1-0.6-0.3c-0.2-0.1-0.3-0.3-0.4-0.4c-0.1-0.2-0.2-0.4-0.2-0.7c0-0.5,0.2-0.9,0.6-1.2
			s0.9-0.4,1.6-0.4c0.5,0,0.9,0.1,1.2,0.2c0.3,0.1,0.6,0.3,0.9,0.6l-0.6,0.6c-0.1-0.2-0.3-0.3-0.6-0.4s-0.6-0.2-1-0.2
			c-0.7,0-1.1,0.2-1.1,0.7c0,0.2,0.1,0.4,0.2,0.5c0.2,0.1,0.3,0.1,0.6,0.2l0.8,0.1c0.2,0,0.4,0.1,0.6,0.1c0.2,0.1,0.4,0.1,0.6,0.2
			c0.2,0.1,0.3,0.3,0.4,0.4c0.1,0.2,0.2,0.4,0.2,0.7c0,0.5-0.2,0.9-0.6,1.2S106.9,223.6,106.2,223.6z"/>
		<path d="M49.9,234.6h1.7v-3.4h-1.8v-0.9h1.8v-0.9c0-0.4,0.1-0.7,0.3-0.9s0.5-0.4,1-0.4h1.7v0.9h-2v1.3h2v0.9h-2v3.4h1.7v0.9h-4.5
			V234.6z"/>
		<path d="M59.2,234.6L59.2,234.6c-0.1,0.1-0.2,0.3-0.3,0.4c-0.1,0.1-0.2,0.2-0.3,0.3c-0.1,0.1-0.3,0.2-0.4,0.2
			c-0.2,0.1-0.3,0.1-0.6,0.1c-0.5,0-0.9-0.2-1.3-0.5c-0.3-0.3-0.5-0.8-0.5-1.5v-3.3H57v3.2c0,0.8,0.4,1.2,1.1,1.2
			c0.1,0,0.3,0,0.4-0.1c0.1,0,0.3-0.1,0.4-0.2c0.1-0.1,0.2-0.2,0.3-0.3c0.1-0.1,0.1-0.2,0.1-0.4v-3.5h1.1v5.2h-1.1V234.6z"/>
		<path d="M61.9,234.6h1.7V229h-1.7v-0.9h2.8v6.5h1.7v0.9h-4.5V234.6z"/>
		<path d="M67.9,234.6h1.7V229h-1.7v-0.9h2.8v6.5h1.7v0.9h-4.5V234.6z"/>
		<path d="M82.2,235.6c-0.6,0-1-0.1-1.4-0.3c-0.4-0.2-0.7-0.4-1-0.7l0.7-0.6c0.2,0.2,0.5,0.4,0.8,0.6s0.6,0.2,1,0.2
			c0.4,0,0.6-0.1,0.9-0.2c0.2-0.1,0.3-0.3,0.3-0.6c0-0.1,0-0.2-0.1-0.3s-0.1-0.1-0.2-0.2c-0.1,0-0.2-0.1-0.3-0.1s-0.2,0-0.3-0.1
			l-0.8-0.1c-0.2,0-0.4-0.1-0.6-0.1c-0.2-0.1-0.4-0.1-0.6-0.3c-0.2-0.1-0.3-0.3-0.4-0.4c-0.1-0.2-0.2-0.4-0.2-0.7
			c0-0.5,0.2-0.9,0.6-1.2s0.9-0.4,1.6-0.4c0.5,0,0.9,0.1,1.2,0.2c0.3,0.1,0.6,0.3,0.9,0.6l-0.6,0.6c-0.1-0.2-0.3-0.3-0.6-0.4
			s-0.6-0.2-1-0.2c-0.7,0-1.1,0.2-1.1,0.7c0,0.2,0.1,0.4,0.2,0.5c0.2,0.1,0.3,0.1,0.6,0.2l0.8,0.1c0.2,0,0.4,0.1,0.6,0.1
			c0.2,0.1,0.4,0.1,0.6,0.2c0.2,0.1,0.3,0.3,0.4,0.4c0.1,0.2,0.2,0.4,0.2,0.7c0,0.5-0.2,0.9-0.6,1.2
			C83.4,235.4,82.9,235.6,82.2,235.6z"/>
		<path d="M88.5,235.5c-0.5,0-0.8-0.1-1-0.4c-0.2-0.2-0.3-0.6-0.3-0.9v-3h-1.6v-0.9h1.1c0.2,0,0.3,0,0.4-0.1
			c0.1-0.1,0.1-0.2,0.1-0.4v-1.3h1v1.8h2.2v0.9h-2.2v3.4h2.2v0.9H88.5z"/>
		<path d="M96.1,235.5c-0.3,0-0.5-0.1-0.7-0.2s-0.3-0.4-0.3-0.6H95c-0.1,0.3-0.3,0.6-0.5,0.7c-0.3,0.2-0.6,0.3-1,0.3
			c-0.5,0-0.9-0.1-1.3-0.4s-0.5-0.7-0.5-1.1c0-0.5,0.2-0.9,0.6-1.1c0.4-0.3,0.9-0.4,1.7-0.4h1v-0.4c0-0.7-0.4-1.1-1.1-1.1
			c-0.3,0-0.6,0.1-0.8,0.2c-0.2,0.1-0.4,0.3-0.5,0.5l-0.7-0.5c0.1-0.3,0.4-0.5,0.7-0.7c0.3-0.2,0.8-0.3,1.3-0.3
			c0.7,0,1.2,0.2,1.5,0.5c0.4,0.3,0.6,0.8,0.6,1.4v2.6h0.6v0.9H96.1z M93.8,234.8c0.4,0,0.6-0.1,0.9-0.2c0.2-0.2,0.3-0.4,0.3-0.6
			v-0.7h-1c-0.8,0-1.2,0.2-1.2,0.7v0.2c0,0.2,0.1,0.4,0.2,0.5C93.3,234.7,93.5,234.8,93.8,234.8z"/>
		<path d="M100.3,235.6c-0.4,0-0.7-0.1-1-0.2c-0.3-0.1-0.6-0.3-0.8-0.5c-0.2-0.2-0.4-0.5-0.5-0.8c-0.1-0.3-0.2-0.7-0.2-1.1
			s0.1-0.8,0.2-1.1c0.1-0.3,0.3-0.6,0.5-0.8c0.2-0.2,0.5-0.4,0.8-0.5c0.3-0.1,0.6-0.2,1-0.2c0.5,0,1,0.1,1.3,0.3
			c0.3,0.2,0.6,0.5,0.7,0.9l-0.9,0.5c-0.1-0.2-0.2-0.4-0.4-0.6c-0.2-0.1-0.4-0.2-0.7-0.2c-0.4,0-0.7,0.1-1,0.4
			c-0.2,0.3-0.3,0.6-0.3,1v0.9c0,0.4,0.1,0.7,0.3,1c0.2,0.3,0.6,0.4,1,0.4c0.3,0,0.6-0.1,0.8-0.2c0.2-0.1,0.4-0.3,0.5-0.6l0.8,0.5
			c-0.2,0.4-0.4,0.7-0.8,0.9C101.3,235.5,100.9,235.6,100.3,235.6z"/>
		<path d="M104,228.1h1.1v4.5h0l0.8-0.8l1.4-1.4h1.3l-2.1,2l2.3,3.1h-1.3l-1.8-2.5l-0.7,0.7v1.8H104V228.1z"/>
	</g>
</g>
<g>
	<polyline class="st1" points="31.8,113.2 27.8,105.2 23.8,113.2 	"/>
	<line class="st1" x1="27.8" y1="105.2" x2="27.8" y2="95.2"/>
	<circle class="st2" cx="27.8" cy="92.2" r="3"/>
	<line class="st1" x1="34.8" y1="98.2" x2="20.8" y2="98.2"/>
	<g>
		<path d="M6.8,126.3c-0.4,0-0.7-0.1-1-0.2c-0.3-0.1-0.6-0.3-0.8-0.5s-0.4-0.5-0.5-0.8c-0.1-0.3-0.2-0.7-0.2-1.1s0.1-0.8,0.2-1.1
			c0.1-0.3,0.3-0.6,0.5-0.8s0.5-0.4,0.8-0.5c0.3-0.1,0.6-0.2,1-0.2s0.7,0.1,1,0.2c0.3,0.1,0.6,0.3,0.8,0.5s0.4,0.5,0.5,0.8
			s0.2,0.7,0.2,1.1s-0.1,0.8-0.2,1.1c-0.1,0.3-0.3,0.6-0.5,0.8s-0.5,0.4-0.8,0.5S7.2,126.3,6.8,126.3z M6.8,125.4
			c0.4,0,0.7-0.1,1-0.4c0.2-0.2,0.4-0.6,0.4-1.1v-0.8c0-0.5-0.1-0.8-0.4-1.1c-0.2-0.2-0.6-0.4-1-0.4s-0.7,0.1-1,0.4
			c-0.2,0.2-0.4,0.6-0.4,1.1v0.8c0,0.5,0.1,0.8,0.4,1.1C6.1,125.3,6.4,125.4,6.8,125.4z"/>
		<path d="M10.6,121h1.1v0.9h0.1c0.2-0.3,0.4-0.6,0.6-0.7c0.3-0.2,0.6-0.3,1-0.3c0.6,0,1.1,0.2,1.5,0.7c0.4,0.5,0.5,1.1,0.5,2
			s-0.2,1.6-0.5,2c-0.4,0.5-0.8,0.7-1.5,0.7c-0.4,0-0.7-0.1-1-0.3s-0.5-0.4-0.6-0.7h-0.1v2.9h-1.1V121z M12.8,125.4
			c0.4,0,0.7-0.1,1-0.4c0.2-0.3,0.3-0.6,0.3-1v-0.8c0-0.4-0.1-0.8-0.3-1c-0.2-0.3-0.5-0.4-1-0.4c-0.2,0-0.3,0-0.4,0.1
			s-0.3,0.1-0.4,0.2c-0.1,0.1-0.2,0.2-0.3,0.3c-0.1,0.1-0.1,0.3-0.1,0.4v1.7c0,0.2,0,0.3,0.1,0.4c0.1,0.1,0.1,0.2,0.3,0.3
			c0.1,0.1,0.2,0.1,0.4,0.2S12.7,125.4,12.8,125.4z"/>
		<path d="M18.9,126.3c-0.4,0-0.7-0.1-1.1-0.2s-0.6-0.3-0.8-0.5s-0.4-0.5-0.5-0.8s-0.2-0.7-0.2-1.1s0.1-0.8,0.2-1.1
			c0.1-0.3,0.3-0.6,0.5-0.9c0.2-0.2,0.5-0.4,0.8-0.5c0.3-0.1,0.6-0.2,1-0.2c0.4,0,0.7,0.1,1,0.2c0.3,0.1,0.5,0.3,0.8,0.5
			c0.2,0.2,0.4,0.5,0.5,0.8c0.1,0.3,0.2,0.7,0.2,1v0.4h-3.7v0.2c0,0.4,0.1,0.7,0.4,1c0.3,0.3,0.6,0.4,1,0.4c0.3,0,0.6-0.1,0.9-0.2
			c0.2-0.1,0.4-0.3,0.6-0.6l0.7,0.6c-0.2,0.3-0.4,0.6-0.8,0.8C19.9,126.2,19.4,126.3,18.9,126.3z M18.8,121.7c-0.2,0-0.4,0-0.5,0.1
			c-0.2,0.1-0.3,0.2-0.4,0.3c-0.1,0.1-0.2,0.3-0.3,0.4c-0.1,0.2-0.1,0.3-0.1,0.5v0.1h2.6V123c0-0.4-0.1-0.7-0.3-1
			S19.2,121.7,18.8,121.7z"/>
		<path d="M22.6,125.3h1.4v-3.4h-1.4V121H25v1.4h0.1c0-0.2,0.1-0.4,0.2-0.5c0.1-0.2,0.2-0.3,0.3-0.4s0.3-0.2,0.5-0.3
			c0.2-0.1,0.4-0.1,0.7-0.1h0.6v1h-1c-0.4,0-0.7,0.1-1,0.4c-0.3,0.2-0.4,0.6-0.4,1v1.9h1.9v0.9h-4.3V125.3z"/>
		<path d="M32.7,126.1c-0.3,0-0.5-0.1-0.7-0.2c-0.2-0.2-0.3-0.4-0.3-0.6h-0.1c-0.1,0.3-0.3,0.6-0.5,0.7c-0.3,0.2-0.6,0.3-1,0.3
			c-0.5,0-0.9-0.1-1.3-0.4c-0.3-0.3-0.5-0.7-0.5-1.1c0-0.5,0.2-0.9,0.6-1.1c0.4-0.3,0.9-0.4,1.7-0.4h1v-0.4c0-0.7-0.4-1.1-1.1-1.1
			c-0.3,0-0.6,0.1-0.8,0.2c-0.2,0.1-0.4,0.3-0.5,0.5l-0.7-0.5c0.1-0.3,0.4-0.5,0.7-0.7c0.3-0.2,0.8-0.3,1.3-0.3
			c0.7,0,1.2,0.2,1.5,0.5c0.4,0.3,0.6,0.8,0.6,1.4v2.6h0.6v0.9H32.7z M30.4,125.5c0.4,0,0.6-0.1,0.9-0.2s0.3-0.4,0.3-0.6v-0.7h-1
			c-0.8,0-1.2,0.2-1.2,0.7v0.2c0,0.2,0.1,0.4,0.2,0.5C29.9,125.4,30.1,125.5,30.4,125.5z"/>
		<path d="M37.1,126.1c-0.5,0-0.8-0.1-1-0.4s-0.3-0.6-0.3-0.9v-3h-1.6V121h1.1c0.2,0,0.3,0,0.4-0.1c0.1-0.1,0.1-0.2,0.1-0.4v-1.3h1
			v1.8h2.2v0.9h-2.2v3.4h2.2v0.9H37.1z"/>
		<path d="M42.8,126.3c-0.4,0-0.7-0.1-1-0.2c-0.3-0.1-0.6-0.3-0.8-0.5s-0.4-0.5-0.5-0.8c-0.1-0.3-0.2-0.7-0.2-1.1s0.1-0.8,0.2-1.1
			c0.1-0.3,0.3-0.6,0.5-0.8s0.5-0.4,0.8-0.5c0.3-0.1,0.6-0.2,1-0.2s0.7,0.1,1,0.2c0.3,0.1,0.6,0.3,0.8,0.5s0.4,0.5,0.5,0.8
			s0.2,0.7,0.2,1.1s-0.1,0.8-0.2,1.1c-0.1,0.3-0.3,0.6-0.5,0.8s-0.5,0.4-0.8,0.5S43.2,126.3,42.8,126.3z M42.8,125.4
			c0.4,0,0.7-0.1,1-0.4c0.2-0.2,0.4-0.6,0.4-1.1v-0.8c0-0.5-0.1-0.8-0.4-1.1c-0.2-0.2-0.6-0.4-1-0.4s-0.7,0.1-1,0.4
			c-0.2,0.2-0.4,0.6-0.4,1.1v0.8c0,0.5,0.1,0.8,0.4,1.1C42.1,125.3,42.4,125.4,42.8,125.4z"/>
		<path d="M46.6,125.3h1.4v-3.4h-1.4V121H49v1.4h0.1c0-0.2,0.1-0.4,0.2-0.5c0.1-0.2,0.2-0.3,0.3-0.4s0.3-0.2,0.5-0.3
			c0.2-0.1,0.4-0.1,0.7-0.1h0.6v1h-1c-0.4,0-0.7,0.1-1,0.4c-0.3,0.2-0.4,0.6-0.4,1v1.9h1.9v0.9h-4.3V125.3z"/>
	</g>
</g>
<g>
	<polyline class="st1" points="481.2,114.7 477.2,106.7 473.2,114.7 	"/>
	<line class="st1" x1="477.2" y1="106.7" x2="477.2" y2="96.7"/>
	<circle class="st3" cx="477.2" cy="93.7" r="3"/>
	<line class="st1" x1="484.2" y1="99.7" x2="470.2" y2="99.7"/>
	<g>
		<path d="M461.5,127.7l-1.9-5.2h1.1l0.7,2.2l0.7,2.1h0.1l0.7-2.1l0.7-2.2h1.1l-1.8,5.2H461.5z"/>
		<path d="M466.2,126.8h1.8v-3.4h-1.8v-0.9h2.8v4.3h1.7v0.9h-4.5V126.8z M468.5,121.6c-0.3,0-0.5-0.1-0.6-0.2
			c-0.1-0.1-0.2-0.3-0.2-0.4v-0.2c0-0.2,0.1-0.3,0.2-0.4c0.1-0.1,0.3-0.2,0.6-0.2c0.3,0,0.5,0.1,0.6,0.2c0.1,0.1,0.2,0.3,0.2,0.4
			v0.2c0,0.2-0.1,0.3-0.2,0.4C468.9,121.5,468.7,121.6,468.5,121.6z"/>
		<path d="M474.3,127.8c-0.4,0-0.7-0.1-1.1-0.2c-0.3-0.1-0.6-0.3-0.8-0.5c-0.2-0.2-0.4-0.5-0.5-0.8s-0.2-0.7-0.2-1.1
			c0-0.4,0.1-0.8,0.2-1.1c0.1-0.3,0.3-0.6,0.5-0.9c0.2-0.2,0.5-0.4,0.8-0.5c0.3-0.1,0.6-0.2,1-0.2c0.4,0,0.7,0.1,1,0.2
			s0.5,0.3,0.8,0.5s0.4,0.5,0.5,0.8c0.1,0.3,0.2,0.7,0.2,1v0.4h-3.7v0.2c0,0.4,0.1,0.7,0.4,1c0.3,0.3,0.6,0.4,1,0.4
			c0.3,0,0.6-0.1,0.9-0.2c0.2-0.1,0.4-0.3,0.6-0.6l0.7,0.6c-0.2,0.3-0.4,0.6-0.8,0.8C475.2,127.7,474.8,127.8,474.3,127.8z
			 M474.2,123.2c-0.2,0-0.4,0-0.5,0.1c-0.2,0.1-0.3,0.2-0.4,0.3c-0.1,0.1-0.2,0.3-0.3,0.4c-0.1,0.2-0.1,0.4-0.1,0.5v0.1h2.6v-0.1
			c0-0.4-0.1-0.7-0.3-1C474.9,123.3,474.6,123.2,474.2,123.2z"/>
		<path d="M477.4,122.5h0.9l0.5,4.3h0.1l0.8-4.3h1.1l0.8,4.3h0.1l0.5-4.3h0.9l-0.7,5.2h-1.3l-0.7-4h-0.1l-0.7,4h-1.3L477.4,122.5z"
			/>
		<path d="M486.3,127.8c-0.4,0-0.7-0.1-1.1-0.2c-0.3-0.1-0.6-0.3-0.8-0.5c-0.2-0.2-0.4-0.5-0.5-0.8s-0.2-0.7-0.2-1.1
			c0-0.4,0.1-0.8,0.2-1.1c0.1-0.3,0.3-0.6,0.5-0.9c0.2-0.2,0.5-0.4,0.8-0.5c0.3-0.1,0.6-0.2,1-0.2c0.4,0,0.7,0.1,1,0.2
			s0.5,0.3,0.8,0.5s0.4,0.5,0.5,0.8c0.1,0.3,0.2,0.7,0.2,1v0.4h-3.7v0.2c0,0.4,0.1,0.7,0.4,1c0.3,0.3,0.6,0.4,1,0.4
			c0.3,0,0.6-0.1,0.9-0.2c0.2-0.1,0.4-0.3,0.6-0.6l0.7,0.6c-0.2,0.3-0.4,0.6-0.8,0.8C487.2,127.7,486.8,127.8,486.3,127.8z
			 M486.2,123.2c-0.2,0-0.4,0-0.5,0.1c-0.2,0.1-0.3,0.2-0.4,0.3c-0.1,0.1-0.2,0.3-0.3,0.4c-0.1,0.2-0.1,0.4-0.1,0.5v0.1h2.6v-0.1
			c0-0.4-0.1-0.7-0.3-1C486.9,123.3,486.6,123.2,486.2,123.2z"/>
		<path d="M489.9,126.8h1.4v-3.4h-1.4v-0.9h2.5v1.4h0.1c0-0.2,0.1-0.4,0.2-0.5s0.2-0.3,0.3-0.4c0.1-0.1,0.3-0.2,0.5-0.3
			c0.2-0.1,0.4-0.1,0.7-0.1h0.6v1h-1c-0.4,0-0.7,0.1-1,0.4c-0.3,0.2-0.4,0.6-0.4,1v1.9h1.9v0.9h-4.3V126.8z"/>
	</g>
</g>
<g>
	<polyline class="st1" points="287.7,251.5 283.7,243.5 279.7,251.5 	"/>
	<line class="st1" x1="283.7" y1="243.5" x2="283.7" y2="233.5"/>
	<circle class="st4" cx="283.7" cy="230.5" r="3"/>
	<line class="st1" x1="290.7" y1="236.5" x2="276.7" y2="236.5"/>
	<g>
		<path d="M273.7,264.5c-0.3,0-0.5-0.1-0.7-0.2s-0.3-0.4-0.3-0.6h-0.1c-0.1,0.3-0.3,0.6-0.5,0.7c-0.3,0.2-0.6,0.3-1,0.3
			c-0.5,0-0.9-0.1-1.3-0.4c-0.3-0.3-0.5-0.7-0.5-1.1c0-0.5,0.2-0.9,0.6-1.1c0.4-0.3,0.9-0.4,1.7-0.4h1v-0.4c0-0.7-0.4-1.1-1.1-1.1
			c-0.3,0-0.6,0.1-0.8,0.2c-0.2,0.1-0.4,0.3-0.5,0.5l-0.7-0.5c0.1-0.3,0.4-0.5,0.7-0.7c0.3-0.2,0.8-0.3,1.3-0.3
			c0.7,0,1.2,0.2,1.5,0.5c0.4,0.3,0.6,0.8,0.6,1.4v2.6h0.6v0.9H273.7z M271.4,263.8c0.4,0,0.6-0.1,0.9-0.2s0.3-0.4,0.3-0.6v-0.7h-1
			c-0.8,0-1.2,0.2-1.2,0.7v0.2c0,0.2,0.1,0.4,0.2,0.5C270.9,263.7,271.1,263.8,271.4,263.8z"/>
		<path d="M278.9,263.6L278.9,263.6c-0.2,0.3-0.4,0.6-0.7,0.7s-0.6,0.3-1,0.3c-0.6,0-1.1-0.2-1.5-0.7c-0.4-0.5-0.5-1.1-0.5-2
			s0.2-1.6,0.5-2c0.4-0.5,0.8-0.7,1.5-0.7c0.4,0,0.7,0.1,1,0.3c0.3,0.2,0.5,0.4,0.6,0.7h0.1v-3.1h1.1v7.4h-1.1V263.6z M277.7,263.7
			c0.2,0,0.3,0,0.5-0.1c0.1,0,0.3-0.1,0.4-0.2c0.1-0.1,0.2-0.2,0.3-0.3c0.1-0.1,0.1-0.3,0.1-0.4V261c0-0.2,0-0.3-0.1-0.4
			c-0.1-0.1-0.1-0.2-0.3-0.3c-0.1-0.1-0.2-0.1-0.4-0.2c-0.1,0-0.3-0.1-0.5-0.1c-0.4,0-0.7,0.1-1,0.4c-0.2,0.3-0.3,0.6-0.3,1v0.8
			c0,0.4,0.1,0.8,0.3,1C277,263.6,277.3,263.7,277.7,263.7z"/>
		<path d="M281.2,264.5v-5.2h0.9v0.7h0c0.1-0.2,0.2-0.4,0.3-0.6c0.1-0.2,0.4-0.2,0.6-0.2c0.3,0,0.5,0.1,0.6,0.2
			c0.2,0.2,0.2,0.4,0.3,0.6h0c0.1-0.2,0.2-0.4,0.4-0.6c0.2-0.2,0.4-0.2,0.7-0.2c0.4,0,0.7,0.1,0.8,0.4c0.2,0.3,0.2,0.7,0.2,1.2v3.6
			h-0.9V261c0-0.4,0-0.6-0.1-0.7s-0.2-0.2-0.4-0.2c-0.2,0-0.3,0.1-0.4,0.2c-0.1,0.1-0.2,0.3-0.2,0.5v3.7h-0.9V261
			c0-0.4,0-0.6-0.1-0.7s-0.2-0.2-0.4-0.2c-0.2,0-0.3,0.1-0.4,0.2c-0.1,0.1-0.2,0.3-0.2,0.5v3.7H281.2z"/>
		<path d="M287.8,263.6h1.8v-3.4h-1.8v-0.9h2.9v4.3h1.6v0.9h-4.5V263.6z M290.1,258.4c-0.3,0-0.5-0.1-0.6-0.2s-0.2-0.3-0.2-0.4v-0.2
			c0-0.2,0.1-0.3,0.2-0.4s0.3-0.2,0.6-0.2c0.3,0,0.5,0.1,0.6,0.2c0.1,0.1,0.2,0.3,0.2,0.4v0.2c0,0.2-0.1,0.3-0.2,0.4
			C290.5,258.3,290.3,258.4,290.1,258.4z"/>
		<path d="M293.6,264.5v-5.2h1.1v0.9h0c0.1-0.1,0.1-0.3,0.2-0.4c0.1-0.1,0.2-0.2,0.3-0.3s0.3-0.2,0.4-0.2s0.3-0.1,0.6-0.1
			c0.5,0,0.9,0.2,1.3,0.5c0.3,0.3,0.5,0.8,0.5,1.5v3.3h-1.1v-3.2c0-0.8-0.4-1.2-1.1-1.2c-0.1,0-0.3,0-0.4,0.1
			c-0.1,0-0.3,0.1-0.4,0.2s-0.2,0.2-0.3,0.3c-0.1,0.1-0.1,0.2-0.1,0.4v3.5H293.6z"/>
	</g>
</g>
<g>
	<g>
		<g>
			<polyline class="st5" points="234.2,33.5 234.2,30.5 231.2,30.5 			"/>
			<line class="st6" x1="218.7" y1="30.5" x2="93.5" y2="30.5"/>
			<polyline class="st5" points="87.2,30.5 84.2,30.5 84.2,33.5 			"/>
			<line class="st6" x1="84.2" y1="46.1" x2="84.2" y2="171.3"/>
			<polyline class="st5" points="84.2,177.5 84.2,180.5 87.2,180.5 			"/>
			<line class="st6" x1="99.7" y1="180.5" x2="225" y2="180.5"/>
			<polyline class="st5" points="231.2,180.5 234.2,180.5 234.2,177.5 			"/>
			<line class="st6" x1="234.2" y1="165" x2="234.2" y2="39.8"/>
		</g>
	</g>
	<g>
		<g>
			<path class="st7" d="M84.2,180.5h24.9v-17.4c0-0.7-0.6-1.2-1.2-1.2H97.2c-0.3,0-0.6-0.1-0.9-0.4l-0.5-0.5
				c-0.2-0.2-0.5-0.4-0.9-0.4h-9.4c-0.7,0-1.2,0.6-1.2,1.2V180.5z"/>
			<path class="st8" d="M109.1,180.5H84.2v-14.9c0-0.7,0.6-1.2,1.2-1.2h9.4c0.3,0,0.6-0.1,0.9-0.4l1.8-1.8c0.2-0.2,0.5-0.4,0.9-0.4
				h9.4c0.7,0,1.2,0.6,1.2,1.2V180.5z"/>
		</g>
		<g>
			<path d="M78.9,189.8h0.9l0.5,4.3h0.1l0.8-4.3h1.1l0.8,4.3h0.1l0.5-4.3h0.9l-0.7,5.2h-1.3l-0.7-4h-0.1l-0.7,4h-1.3L78.9,189.8z"/>
			<path d="M87.8,195.1c-0.4,0-0.7-0.1-1.1-0.2s-0.6-0.3-0.8-0.5s-0.4-0.5-0.5-0.8s-0.2-0.7-0.2-1.1s0.1-0.8,0.2-1.1
				c0.1-0.3,0.3-0.6,0.5-0.9c0.2-0.2,0.5-0.4,0.8-0.5c0.3-0.1,0.6-0.2,1-0.2c0.4,0,0.7,0.1,1,0.2c0.3,0.1,0.5,0.3,0.8,0.5
				c0.2,0.2,0.4,0.5,0.5,0.8c0.1,0.3,0.2,0.7,0.2,1v0.4h-3.7v0.2c0,0.4,0.1,0.7,0.4,1c0.3,0.3,0.6,0.4,1,0.4c0.3,0,0.6-0.1,0.9-0.2
				c0.2-0.1,0.4-0.3,0.6-0.6l0.7,0.6c-0.2,0.3-0.4,0.6-0.8,0.8C88.8,195,88.3,195.1,87.8,195.1z M87.7,190.5c-0.2,0-0.4,0-0.5,0.1
				c-0.2,0.1-0.3,0.2-0.4,0.3c-0.1,0.1-0.2,0.3-0.3,0.4c-0.1,0.2-0.1,0.3-0.1,0.5v0.1H89v-0.1c0-0.4-0.1-0.7-0.3-1
				S88.1,190.5,87.7,190.5z"/>
			<path d="M91.5,187.6h1.1v3.1h0.1c0.2-0.3,0.4-0.6,0.6-0.7c0.3-0.2,0.6-0.3,1-0.3c0.6,0,1.1,0.2,1.5,0.7c0.4,0.5,0.5,1.1,0.5,2
				s-0.2,1.6-0.5,2c-0.4,0.5-0.8,0.7-1.5,0.7c-0.4,0-0.7-0.1-1-0.3s-0.5-0.4-0.6-0.7h-0.1v0.9h-1.1V187.6z M93.7,194.2
				c0.4,0,0.7-0.1,1-0.4c0.2-0.3,0.3-0.6,0.3-1V192c0-0.4-0.1-0.8-0.3-1c-0.2-0.3-0.5-0.4-1-0.4c-0.2,0-0.3,0-0.4,0.1
				s-0.3,0.1-0.4,0.2c-0.1,0.1-0.2,0.2-0.3,0.3c-0.1,0.1-0.1,0.3-0.1,0.4v1.7c0,0.2,0,0.3,0.1,0.4c0.1,0.1,0.1,0.2,0.3,0.3
				c0.1,0.1,0.2,0.1,0.4,0.2S93.6,194.2,93.7,194.2z"/>
			<path d="M101.6,195c-0.3,0-0.5-0.1-0.7-0.2s-0.3-0.4-0.3-0.6h-0.1c-0.1,0.3-0.3,0.6-0.5,0.7c-0.3,0.2-0.6,0.3-1,0.3
				c-0.5,0-0.9-0.1-1.3-0.4c-0.3-0.3-0.5-0.7-0.5-1.1c0-0.5,0.2-0.9,0.6-1.1c0.4-0.3,0.9-0.4,1.7-0.4h1v-0.4c0-0.7-0.4-1.1-1.1-1.1
				c-0.3,0-0.6,0.1-0.8,0.2c-0.2,0.1-0.4,0.3-0.5,0.5l-0.7-0.5c0.1-0.3,0.4-0.5,0.7-0.7c0.3-0.2,0.8-0.3,1.3-0.3
				c0.7,0,1.2,0.2,1.5,0.5c0.4,0.3,0.6,0.8,0.6,1.4v2.6h0.6v0.9H101.6z M99.3,194.3c0.4,0,0.6-0.1,0.9-0.2s0.3-0.4,0.3-0.6v-0.7h-1
				c-0.8,0-1.2,0.2-1.2,0.7v0.2c0,0.2,0.1,0.4,0.2,0.5C98.8,194.2,99,194.3,99.3,194.3z"/>
			<path d="M103.5,189.8h1.1v0.9h0.1c0.2-0.3,0.4-0.6,0.6-0.7c0.3-0.2,0.6-0.3,1-0.3c0.6,0,1.1,0.2,1.5,0.7c0.4,0.5,0.5,1.1,0.5,2
				s-0.2,1.6-0.5,2c-0.4,0.5-0.8,0.7-1.5,0.7c-0.4,0-0.7-0.1-1-0.3s-0.5-0.4-0.6-0.7h-0.1v2.9h-1.1V189.8z M105.7,194.2
				c0.4,0,0.7-0.1,1-0.4c0.2-0.3,0.3-0.6,0.3-1V192c0-0.4-0.1-0.8-0.3-1c-0.2-0.3-0.5-0.4-1-0.4c-0.2,0-0.3,0-0.4,0.1
				s-0.3,0.1-0.4,0.2c-0.1,0.1-0.2,0.2-0.3,0.3c-0.1,0.1-0.1,0.3-0.1,0.4v1.7c0,0.2,0,0.3,0.1,0.4c0.1,0.1,0.1,0.2,0.3,0.3
				c0.1,0.1,0.2,0.1,0.4,0.2S105.6,194.2,105.7,194.2z"/>
			<path d="M109.5,189.8h1.1v0.9h0.1c0.2-0.3,0.4-0.6,0.6-0.7c0.3-0.2,0.6-0.3,1-0.3c0.6,0,1.1,0.2,1.5,0.7c0.4,0.5,0.5,1.1,0.5,2
				s-0.2,1.6-0.5,2c-0.4,0.5-0.8,0.7-1.5,0.7c-0.4,0-0.7-0.1-1-0.3s-0.5-0.4-0.6-0.7h-0.1v2.9h-1.1V189.8z M111.7,194.2
				c0.4,0,0.7-0.1,1-0.4c0.2-0.3,0.3-0.6,0.3-1V192c0-0.4-0.1-0.8-0.3-1c-0.2-0.3-0.5-0.4-1-0.4c-0.2,0-0.3,0-0.4,0.1
				s-0.3,0.1-0.4,0.2c-0.1,0.1-0.2,0.2-0.3,0.3c-0.1,0.1-0.1,0.3-0.1,0.4v1.7c0,0.2,0,0.3,0.1,0.4c0.1,0.1,0.1,0.2,0.3,0.3
				c0.1,0.1,0.2,0.1,0.4,0.2S111.6,194.2,111.7,194.2z"/>
		</g>
	</g>
</g>
<g>
	<g>
		<g>
			<polyline class="st5" points="418.3,33.5 418.3,30.5 415.3,30.5 			"/>
			<line class="st9" x1="404" y1="30.5" x2="341.9" y2="30.5"/>
			<polyline class="st5" points="336.3,30.5 333.3,30.5 333.3,33.5 			"/>
			<line class="st6" x1="333.3" y1="46.1" x2="333.3" y2="171.3"/>
			<polyline class="st5" points="333.3,177.5 333.3,180.5 336.3,180.5 			"/>
			<line class="st9" x1="347.6" y1="180.5" x2="409.6" y2="180.5"/>
			<polyline class="st5" points="415.3,180.5 418.3,180.5 418.3,177.5 			"/>
			<line class="st6" x1="418.3" y1="165" x2="418.3" y2="39.8"/>
		</g>
	</g>
	<g>
		<g>
			<path class="st7" d="M333.3,180.5h24.9v-17.4c0-0.7-0.6-1.2-1.2-1.2h-10.7c-0.3,0-0.6-0.1-0.9-0.4l-0.5-0.5
				c-0.2-0.2-0.5-0.4-0.9-0.4h-9.4c-0.7,0-1.2,0.6-1.2,1.2V180.5z"/>
			<path class="st8" d="M358.1,180.5h-24.9v-14.9c0-0.7,0.6-1.2,1.2-1.2h9.4c0.3,0,0.6-0.1,0.9-0.4l1.8-1.8c0.2-0.2,0.5-0.4,0.9-0.4
				h9.4c0.7,0,1.2,0.6,1.2,1.2V180.5z"/>
		</g>
		<g>
			<path d="M336.7,195.1c-0.6,0-1-0.1-1.4-0.3s-0.7-0.4-1-0.7l0.7-0.6c0.2,0.2,0.5,0.4,0.8,0.6s0.6,0.2,1,0.2c0.4,0,0.6-0.1,0.9-0.2
				c0.2-0.1,0.3-0.3,0.3-0.6c0-0.1,0-0.2-0.1-0.3c0-0.1-0.1-0.1-0.2-0.2s-0.2-0.1-0.3-0.1c-0.1,0-0.2,0-0.3-0.1l-0.8-0.1
				c-0.2,0-0.4-0.1-0.6-0.1c-0.2-0.1-0.4-0.1-0.6-0.3c-0.2-0.1-0.3-0.3-0.4-0.4c-0.1-0.2-0.2-0.4-0.2-0.7c0-0.5,0.2-0.9,0.6-1.2
				s0.9-0.4,1.6-0.4c0.5,0,0.9,0.1,1.2,0.2s0.6,0.3,0.9,0.6l-0.6,0.6c-0.1-0.2-0.3-0.3-0.6-0.4c-0.2-0.1-0.6-0.2-1-0.2
				c-0.7,0-1.1,0.2-1.1,0.7c0,0.2,0.1,0.4,0.2,0.5c0.2,0.1,0.3,0.1,0.6,0.2l0.8,0.1c0.2,0,0.4,0.1,0.6,0.1c0.2,0.1,0.4,0.1,0.6,0.2
				c0.2,0.1,0.3,0.3,0.4,0.4c0.1,0.2,0.2,0.4,0.2,0.7c0,0.5-0.2,0.9-0.6,1.2S337.4,195.1,336.7,195.1z"/>
			<path d="M340.7,194.1h1.8v-3.4h-1.8v-0.9h2.9v4.3h1.6v0.9h-4.5V194.1z M343,188.9c-0.3,0-0.5-0.1-0.6-0.2s-0.2-0.3-0.2-0.4v-0.2
				c0-0.2,0.1-0.3,0.2-0.4s0.3-0.2,0.6-0.2c0.3,0,0.5,0.1,0.6,0.2c0.1,0.1,0.2,0.3,0.2,0.4v0.2c0,0.2-0.1,0.3-0.2,0.4
				C343.5,188.8,343.3,188.9,343,188.9z"/>
			<path d="M349,195c-0.5,0-0.8-0.1-1-0.4c-0.2-0.2-0.3-0.6-0.3-0.9v-3h-1.6v-0.9h1.1c0.2,0,0.3,0,0.4-0.1c0.1-0.1,0.1-0.2,0.1-0.4
				V188h1v1.8h2.2v0.9h-2.2v3.4h2.2v0.9H349z"/>
			<path d="M354.8,195.1c-0.4,0-0.7-0.1-1.1-0.2s-0.6-0.3-0.8-0.5c-0.2-0.2-0.4-0.5-0.5-0.8s-0.2-0.7-0.2-1.1s0.1-0.8,0.2-1.1
				c0.1-0.3,0.3-0.6,0.5-0.9c0.2-0.2,0.5-0.4,0.8-0.5c0.3-0.1,0.6-0.2,1-0.2c0.4,0,0.7,0.1,1,0.2c0.3,0.1,0.5,0.3,0.8,0.5
				c0.2,0.2,0.4,0.5,0.5,0.8c0.1,0.3,0.2,0.7,0.2,1v0.4h-3.7v0.2c0,0.4,0.1,0.7,0.4,1c0.3,0.3,0.6,0.4,1,0.4c0.3,0,0.6-0.1,0.9-0.2
				c0.2-0.1,0.4-0.3,0.6-0.6l0.7,0.6c-0.2,0.3-0.4,0.6-0.8,0.8S355.4,195.1,354.8,195.1z M354.7,190.5c-0.2,0-0.4,0-0.5,0.1
				c-0.2,0.1-0.3,0.2-0.4,0.3c-0.1,0.1-0.2,0.3-0.3,0.4c-0.1,0.2-0.1,0.3-0.1,0.5v0.1h2.6v-0.1c0-0.4-0.1-0.7-0.3-1
				C355.4,190.6,355.1,190.5,354.7,190.5z"/>
		</g>
	</g>
</g>
<g>
	<g>
		<g>
			<polyline class="st5" points="326.2,33.5 326.2,30.5 323.2,30.5 			"/>
			<line class="st9" x1="312" y1="30.5" x2="249.9" y2="30.5"/>
			<polyline class="st5" points="244.2,30.5 241.2,30.5 241.2,33.5 			"/>
			<line class="st6" x1="241.2" y1="46.1" x2="241.2" y2="171.3"/>
			<polyline class="st5" points="241.2,177.5 241.2,180.5 244.2,180.5 			"/>
			<line class="st9" x1="255.5" y1="180.5" x2="317.6" y2="180.5"/>
			<polyline class="st5" points="323.2,180.5 326.2,180.5 326.2,177.5 			"/>
			<line class="st6" x1="326.2" y1="165" x2="326.2" y2="39.8"/>
		</g>
	</g>
	<g>
		<g>
			<path class="st7" d="M241.2,180.5h24.9v-17.4c0-0.7-0.6-1.2-1.2-1.2h-10.7c-0.3,0-0.6-0.1-0.9-0.4l-0.5-0.5
				c-0.2-0.2-0.5-0.4-0.9-0.4h-9.4c-0.7,0-1.2,0.6-1.2,1.2V180.5z"/>
			<path class="st8" d="M266.1,180.5h-24.9v-14.9c0-0.7,0.6-1.2,1.2-1.2h9.4c0.3,0,0.6-0.1,0.9-0.4l1.8-1.8c0.2-0.2,0.5-0.4,0.9-0.4
				h9.4c0.7,0,1.2,0.6,1.2,1.2V180.5z"/>
		</g>
		<g>
			<path d="M233.8,194.1L233.8,194.1c-0.2,0.3-0.4,0.6-0.7,0.7c-0.3,0.2-0.6,0.3-1,0.3c-0.6,0-1.1-0.2-1.5-0.7
				c-0.4-0.5-0.5-1.1-0.5-2s0.2-1.6,0.5-2c0.4-0.5,0.8-0.7,1.5-0.7c0.4,0,0.7,0.1,1,0.3c0.3,0.2,0.5,0.4,0.6,0.7h0.1v-3.1h1.1v7.4
				h-1.1V194.1z M232.6,194.2c0.2,0,0.3,0,0.4-0.1s0.3-0.1,0.4-0.2c0.1-0.1,0.2-0.2,0.3-0.3c0.1-0.1,0.1-0.3,0.1-0.4v-1.7
				c0-0.2,0-0.3-0.1-0.4c-0.1-0.1-0.1-0.2-0.3-0.3c-0.1-0.1-0.2-0.1-0.4-0.2s-0.3-0.1-0.4-0.1c-0.4,0-0.7,0.1-1,0.4
				c-0.2,0.3-0.3,0.6-0.3,1v0.8c0,0.4,0.1,0.8,0.3,1C231.9,194.1,232.2,194.2,232.6,194.2z"/>
			<path d="M240.6,195c-0.3,0-0.5-0.1-0.7-0.2s-0.3-0.4-0.3-0.6h-0.1c-0.1,0.3-0.3,0.6-0.5,0.7c-0.3,0.2-0.6,0.3-1,0.3
				c-0.5,0-0.9-0.1-1.3-0.4c-0.3-0.3-0.5-0.7-0.5-1.1c0-0.5,0.2-0.9,0.6-1.1c0.4-0.3,0.9-0.4,1.7-0.4h1v-0.4c0-0.7-0.4-1.1-1.1-1.1
				c-0.3,0-0.6,0.1-0.8,0.2c-0.2,0.1-0.4,0.3-0.5,0.5l-0.7-0.5c0.1-0.3,0.4-0.5,0.7-0.7c0.3-0.2,0.8-0.3,1.3-0.3
				c0.7,0,1.2,0.2,1.5,0.5c0.4,0.3,0.6,0.8,0.6,1.4v2.6h0.6v0.9H240.6z M238.3,194.3c0.4,0,0.6-0.1,0.9-0.2s0.3-0.4,0.3-0.6v-0.7h-1
				c-0.8,0-1.2,0.2-1.2,0.7v0.2c0,0.2,0.1,0.4,0.2,0.5C237.8,194.2,238,194.3,238.3,194.3z"/>
			<path d="M245,195c-0.5,0-0.8-0.1-1-0.4s-0.3-0.6-0.3-0.9v-3h-1.6v-0.9h1.1c0.2,0,0.3,0,0.4-0.1c0.1-0.1,0.1-0.2,0.1-0.4V188h1
				v1.8h2.2v0.9h-2.2v3.4h2.2v0.9H245z"/>
			<path d="M252.6,195c-0.3,0-0.5-0.1-0.7-0.2s-0.3-0.4-0.3-0.6h-0.1c-0.1,0.3-0.3,0.6-0.5,0.7c-0.3,0.2-0.6,0.3-1,0.3
				c-0.5,0-0.9-0.1-1.3-0.4c-0.3-0.3-0.5-0.7-0.5-1.1c0-0.5,0.2-0.9,0.6-1.1c0.4-0.3,0.9-0.4,1.7-0.4h1v-0.4c0-0.7-0.4-1.1-1.1-1.1
				c-0.3,0-0.6,0.1-0.8,0.2c-0.2,0.1-0.4,0.3-0.5,0.5l-0.7-0.5c0.1-0.3,0.4-0.5,0.7-0.7c0.3-0.2,0.8-0.3,1.3-0.3
				c0.7,0,1.2,0.2,1.5,0.5c0.4,0.3,0.6,0.8,0.6,1.4v2.6h0.6v0.9H252.6z M250.3,194.3c0.4,0,0.6-0.1,0.9-0.2s0.3-0.4,0.3-0.6v-0.7h-1
				c-0.8,0-1.2,0.2-1.2,0.7v0.2c0,0.2,0.1,0.4,0.2,0.5C249.8,194.2,250,194.3,250.3,194.3z"/>
			<path d="M254.5,187.6h1.1v3.1h0.1c0.2-0.3,0.4-0.6,0.6-0.7c0.3-0.2,0.6-0.3,1-0.3c0.6,0,1.1,0.2,1.5,0.7c0.4,0.5,0.5,1.1,0.5,2
				s-0.2,1.6-0.5,2c-0.4,0.5-0.8,0.7-1.5,0.7c-0.4,0-0.7-0.1-1-0.3c-0.3-0.2-0.5-0.4-0.6-0.7h-0.1v0.9h-1.1V187.6z M256.7,194.2
				c0.4,0,0.7-0.1,1-0.4c0.2-0.3,0.3-0.6,0.3-1V192c0-0.4-0.1-0.8-0.3-1c-0.2-0.3-0.5-0.4-1-0.4c-0.2,0-0.3,0-0.4,0.1
				s-0.3,0.1-0.4,0.2c-0.1,0.1-0.2,0.2-0.3,0.3c-0.1,0.1-0.1,0.3-0.1,0.4v1.7c0,0.2,0,0.3,0.1,0.4c0.1,0.1,0.1,0.2,0.3,0.3
				c0.1,0.1,0.2,0.1,0.4,0.2S256.6,194.2,256.7,194.2z"/>
			<path d="M264.6,195c-0.3,0-0.5-0.1-0.7-0.2s-0.3-0.4-0.3-0.6h-0.1c-0.1,0.3-0.3,0.6-0.5,0.7c-0.3,0.2-0.6,0.3-1,0.3
				c-0.5,0-0.9-0.1-1.3-0.4c-0.3-0.3-0.5-0.7-0.5-1.1c0-0.5,0.2-0.9,0.6-1.1c0.4-0.3,0.9-0.4,1.7-0.4h1v-0.4c0-0.7-0.4-1.1-1.1-1.1
				c-0.3,0-0.6,0.1-0.8,0.2c-0.2,0.1-0.4,0.3-0.5,0.5l-0.7-0.5c0.1-0.3,0.4-0.5,0.7-0.7c0.3-0.2,0.8-0.3,1.3-0.3
				c0.7,0,1.2,0.2,1.5,0.5c0.4,0.3,0.6,0.8,0.6,1.4v2.6h0.6v0.9H264.6z M262.3,194.3c0.4,0,0.6-0.1,0.9-0.2s0.3-0.4,0.3-0.6v-0.7h-1
				c-0.8,0-1.2,0.2-1.2,0.7v0.2c0,0.2,0.1,0.4,0.2,0.5C261.8,194.2,262,194.3,262.3,194.3z"/>
			<path d="M268.7,195.1c-0.6,0-1-0.1-1.4-0.3s-0.7-0.4-1-0.7l0.7-0.6c0.2,0.2,0.5,0.4,0.8,0.6s0.6,0.2,1,0.2c0.4,0,0.6-0.1,0.9-0.2
				c0.2-0.1,0.3-0.3,0.3-0.6c0-0.1,0-0.2-0.1-0.3c0-0.1-0.1-0.1-0.2-0.2s-0.2-0.1-0.3-0.1c-0.1,0-0.2,0-0.3-0.1l-0.8-0.1
				c-0.2,0-0.4-0.1-0.6-0.1c-0.2-0.1-0.4-0.1-0.6-0.3c-0.2-0.1-0.3-0.3-0.4-0.4c-0.1-0.2-0.2-0.4-0.2-0.7c0-0.5,0.2-0.9,0.6-1.2
				s0.9-0.4,1.6-0.4c0.5,0,0.9,0.1,1.2,0.2c0.3,0.1,0.6,0.3,0.9,0.6l-0.6,0.6c-0.1-0.2-0.3-0.3-0.6-0.4s-0.6-0.2-1-0.2
				c-0.7,0-1.1,0.2-1.1,0.7c0,0.2,0.1,0.4,0.2,0.5c0.2,0.1,0.3,0.1,0.6,0.2l0.8,0.1c0.2,0,0.4,0.1,0.6,0.1c0.2,0.1,0.4,0.1,0.6,0.2
				c0.2,0.1,0.3,0.3,0.4,0.4c0.1,0.2,0.2,0.4,0.2,0.7c0,0.5-0.2,0.9-0.6,1.2S269.4,195.1,268.7,195.1z"/>
			<path d="M274.8,195.1c-0.4,0-0.7-0.1-1.1-0.2s-0.6-0.3-0.8-0.5s-0.4-0.5-0.5-0.8s-0.2-0.7-0.2-1.1s0.1-0.8,0.2-1.1
				c0.1-0.3,0.3-0.6,0.5-0.9c0.2-0.2,0.5-0.4,0.8-0.5c0.3-0.1,0.6-0.2,1-0.2c0.4,0,0.7,0.1,1,0.2c0.3,0.1,0.5,0.3,0.8,0.5
				s0.4,0.5,0.5,0.8c0.1,0.3,0.2,0.7,0.2,1v0.4h-3.7v0.2c0,0.4,0.1,0.7,0.4,1c0.3,0.3,0.6,0.4,1,0.4c0.3,0,0.6-0.1,0.9-0.2
				c0.2-0.1,0.4-0.3,0.6-0.6l0.7,0.6c-0.2,0.3-0.4,0.6-0.8,0.8C275.8,195,275.3,195.1,274.8,195.1z M274.7,190.5
				c-0.2,0-0.4,0-0.5,0.1c-0.2,0.1-0.3,0.2-0.4,0.3c-0.1,0.1-0.2,0.3-0.3,0.4c-0.1,0.2-0.1,0.3-0.1,0.5v0.1h2.6v-0.1
				c0-0.4-0.1-0.7-0.3-1C275.4,190.6,275.1,190.5,274.7,190.5z"/>
		</g>
	</g>
</g>
<g>
	<ellipse class="st10" cx="126.6" cy="79.5" rx="17.5" ry="11.2"/>
	<g>
		<g>
			<path d="M99.6,50.9c-0.6,0-1-0.1-1.4-0.3c-0.4-0.2-0.7-0.4-1-0.7l0.7-0.6c0.2,0.2,0.5,0.4,0.8,0.6c0.3,0.1,0.6,0.2,1,0.2
				c0.4,0,0.6-0.1,0.9-0.2c0.2-0.1,0.3-0.3,0.3-0.6c0-0.1,0-0.2-0.1-0.3c0-0.1-0.1-0.1-0.2-0.2c-0.1,0-0.2-0.1-0.3-0.1
				c-0.1,0-0.2,0-0.3-0.1l-0.8-0.1c-0.2,0-0.4-0.1-0.6-0.1c-0.2-0.1-0.4-0.1-0.6-0.3c-0.2-0.1-0.3-0.3-0.4-0.4
				c-0.1-0.2-0.2-0.4-0.2-0.7c0-0.5,0.2-0.9,0.6-1.2c0.4-0.3,0.9-0.4,1.6-0.4c0.5,0,0.9,0.1,1.2,0.2c0.3,0.1,0.6,0.3,0.9,0.6
				l-0.6,0.6c-0.1-0.2-0.3-0.3-0.6-0.4s-0.6-0.2-1-0.2c-0.7,0-1.1,0.2-1.1,0.7c0,0.2,0.1,0.4,0.2,0.5c0.2,0.1,0.3,0.1,0.6,0.2
				l0.8,0.1c0.2,0,0.4,0.1,0.6,0.1c0.2,0.1,0.4,0.1,0.6,0.2c0.2,0.1,0.3,0.3,0.4,0.4s0.2,0.4,0.2,0.7c0,0.5-0.2,0.9-0.6,1.2
				C100.9,50.7,100.3,50.9,99.6,50.9z"/>
			<path d="M105.9,50.7c-0.5,0-0.8-0.1-1-0.4c-0.2-0.2-0.3-0.6-0.3-0.9v-3H103v-0.9h1.1c0.2,0,0.3,0,0.4-0.1s0.1-0.2,0.1-0.4v-1.3h1
				v1.8h2.2v0.9h-2.2v3.4h2.2v0.9H105.9z"/>
			<path d="M113.5,50.7c-0.3,0-0.5-0.1-0.7-0.2c-0.2-0.2-0.3-0.4-0.3-0.6h-0.1c-0.1,0.3-0.3,0.6-0.5,0.7s-0.6,0.3-1,0.3
				c-0.5,0-0.9-0.1-1.3-0.4s-0.5-0.7-0.5-1.1c0-0.5,0.2-0.9,0.6-1.1c0.4-0.3,0.9-0.4,1.7-0.4h1v-0.4c0-0.7-0.4-1.1-1.1-1.1
				c-0.3,0-0.6,0.1-0.8,0.2c-0.2,0.1-0.4,0.3-0.5,0.5l-0.7-0.5c0.1-0.3,0.4-0.5,0.7-0.7c0.3-0.2,0.8-0.3,1.3-0.3
				c0.7,0,1.2,0.2,1.5,0.5c0.4,0.3,0.6,0.8,0.6,1.4v2.6h0.6v0.9H113.5z M111.2,50.1c0.4,0,0.6-0.1,0.9-0.2s0.3-0.4,0.3-0.6v-0.7h-1
				c-0.8,0-1.2,0.2-1.2,0.7v0.2c0,0.2,0.1,0.4,0.2,0.5C110.7,50,111,50.1,111.2,50.1z"/>
			<path d="M117.9,50.7c-0.5,0-0.8-0.1-1-0.4c-0.2-0.2-0.3-0.6-0.3-0.9v-3H115v-0.9h1.1c0.2,0,0.3,0,0.4-0.1s0.1-0.2,0.1-0.4v-1.3h1
				v1.8h2.2v0.9h-2.2v3.4h2.2v0.9H117.9z"/>
			<path d="M121.6,49.8h1.8v-3.4h-1.8v-0.9h2.9v4.3h1.6v0.9h-4.5V49.8z M123.9,44.6c-0.3,0-0.5-0.1-0.6-0.2
				c-0.1-0.1-0.2-0.3-0.2-0.4v-0.2c0-0.2,0.1-0.3,0.2-0.4c0.1-0.1,0.3-0.2,0.6-0.2c0.3,0,0.5,0.1,0.6,0.2s0.2,0.3,0.2,0.4V44
				c0,0.2-0.1,0.3-0.2,0.4S124.2,44.6,123.9,44.6z"/>
			<path d="M129.6,50.9c-0.6,0-1-0.1-1.4-0.3c-0.4-0.2-0.7-0.4-1-0.7l0.7-0.6c0.2,0.2,0.5,0.4,0.8,0.6c0.3,0.1,0.6,0.2,1,0.2
				c0.4,0,0.6-0.1,0.9-0.2c0.2-0.1,0.3-0.3,0.3-0.6c0-0.1,0-0.2-0.1-0.3c0-0.1-0.1-0.1-0.2-0.2c-0.1,0-0.2-0.1-0.3-0.1
				c-0.1,0-0.2,0-0.3-0.1l-0.8-0.1c-0.2,0-0.4-0.1-0.6-0.1c-0.2-0.1-0.4-0.1-0.6-0.3c-0.2-0.1-0.3-0.3-0.4-0.4
				c-0.1-0.2-0.2-0.4-0.2-0.7c0-0.5,0.2-0.9,0.6-1.2c0.4-0.3,0.9-0.4,1.6-0.4c0.5,0,0.9,0.1,1.2,0.2c0.3,0.1,0.6,0.3,0.9,0.6
				l-0.6,0.6c-0.1-0.2-0.3-0.3-0.6-0.4s-0.6-0.2-1-0.2c-0.7,0-1.1,0.2-1.1,0.7c0,0.2,0.1,0.4,0.2,0.5c0.2,0.1,0.3,0.1,0.6,0.2
				l0.8,0.1c0.2,0,0.4,0.1,0.6,0.1c0.2,0.1,0.4,0.1,0.6,0.2c0.2,0.1,0.3,0.3,0.4,0.4s0.2,0.4,0.2,0.7c0,0.5-0.2,0.9-0.6,1.2
				C130.9,50.7,130.3,50.9,129.6,50.9z"/>
			<path d="M135.9,50.7c-0.5,0-0.8-0.1-1-0.4c-0.2-0.2-0.3-0.6-0.3-0.9v-3H133v-0.9h1.1c0.2,0,0.3,0,0.4-0.1s0.1-0.2,0.1-0.4v-1.3h1
				v1.8h2.2v0.9h-2.2v3.4h2.2v0.9H135.9z"/>
			<path d="M139.6,49.8h1.8v-3.4h-1.8v-0.9h2.9v4.3h1.6v0.9h-4.5V49.8z M141.9,44.6c-0.3,0-0.5-0.1-0.6-0.2
				c-0.1-0.1-0.2-0.3-0.2-0.4v-0.2c0-0.2,0.1-0.3,0.2-0.4c0.1-0.1,0.3-0.2,0.6-0.2c0.3,0,0.5,0.1,0.6,0.2s0.2,0.3,0.2,0.4V44
				c0,0.2-0.1,0.3-0.2,0.4S142.2,44.6,141.9,44.6z"/>
			<path d="M147.8,50.9c-0.4,0-0.7-0.1-1-0.2c-0.3-0.1-0.6-0.3-0.8-0.5c-0.2-0.2-0.4-0.5-0.5-0.9c-0.1-0.3-0.2-0.7-0.2-1.1
				c0-0.4,0.1-0.8,0.2-1.1c0.1-0.3,0.3-0.6,0.5-0.8c0.2-0.2,0.5-0.4,0.8-0.5c0.3-0.1,0.6-0.2,1-0.2c0.5,0,1,0.1,1.3,0.3
				s0.6,0.5,0.7,0.9l-0.9,0.5c-0.1-0.2-0.2-0.4-0.4-0.6c-0.2-0.1-0.4-0.2-0.7-0.2c-0.4,0-0.7,0.1-1,0.4c-0.2,0.3-0.3,0.6-0.3,1v0.9
				c0,0.4,0.1,0.7,0.3,1c0.2,0.3,0.6,0.4,1,0.4c0.3,0,0.6-0.1,0.8-0.2c0.2-0.1,0.4-0.3,0.5-0.6l0.8,0.5c-0.2,0.4-0.4,0.7-0.8,0.9
				C148.8,50.7,148.3,50.9,147.8,50.9z"/>
			<path d="M153.6,50.9c-0.6,0-1-0.1-1.4-0.3c-0.4-0.2-0.7-0.4-1-0.7l0.7-0.6c0.2,0.2,0.5,0.4,0.8,0.6c0.3,0.1,0.6,0.2,1,0.2
				c0.4,0,0.6-0.1,0.9-0.2c0.2-0.1,0.3-0.3,0.3-0.6c0-0.1,0-0.2-0.1-0.3c0-0.1-0.1-0.1-0.2-0.2c-0.1,0-0.2-0.1-0.3-0.1
				c-0.1,0-0.2,0-0.3-0.1l-0.8-0.1c-0.2,0-0.4-0.1-0.6-0.1c-0.2-0.1-0.4-0.1-0.6-0.3c-0.2-0.1-0.3-0.3-0.4-0.4
				c-0.1-0.2-0.2-0.4-0.2-0.7c0-0.5,0.2-0.9,0.6-1.2c0.4-0.3,0.9-0.4,1.6-0.4c0.5,0,0.9,0.1,1.2,0.2c0.3,0.1,0.6,0.3,0.9,0.6
				l-0.6,0.6c-0.1-0.2-0.3-0.3-0.6-0.4s-0.6-0.2-1-0.2c-0.7,0-1.1,0.2-1.1,0.7c0,0.2,0.1,0.4,0.2,0.5c0.2,0.1,0.3,0.1,0.6,0.2
				l0.8,0.1c0.2,0,0.4,0.1,0.6,0.1c0.2,0.1,0.4,0.1,0.6,0.2c0.2,0.1,0.3,0.3,0.4,0.4s0.2,0.4,0.2,0.7c0,0.5-0.2,0.9-0.6,1.2
				C154.9,50.7,154.3,50.9,153.6,50.9z"/>
			<path d="M105.8,62.9c-0.4,0-0.7-0.1-1-0.2c-0.3-0.1-0.6-0.3-0.8-0.5c-0.2-0.2-0.4-0.5-0.5-0.9c-0.1-0.3-0.2-0.7-0.2-1.1
				c0-0.4,0.1-0.8,0.2-1.1c0.1-0.3,0.3-0.6,0.5-0.8c0.2-0.2,0.5-0.4,0.8-0.5c0.3-0.1,0.6-0.2,1-0.2c0.5,0,1,0.1,1.3,0.3
				s0.6,0.5,0.7,0.9l-0.9,0.5c-0.1-0.2-0.2-0.4-0.4-0.6c-0.2-0.1-0.4-0.2-0.7-0.2c-0.4,0-0.7,0.1-1,0.4c-0.2,0.3-0.3,0.6-0.3,1v0.9
				c0,0.4,0.1,0.7,0.3,1c0.2,0.3,0.6,0.4,1,0.4c0.3,0,0.6-0.1,0.8-0.2c0.2-0.1,0.4-0.3,0.5-0.6l0.8,0.5c-0.2,0.4-0.4,0.7-0.8,0.9
				C106.8,62.7,106.3,62.9,105.8,62.9z"/>
			<path d="M109.4,61.8h1.4v-3.4h-1.4v-0.9h2.5v1.4h0.1c0-0.2,0.1-0.4,0.2-0.5c0.1-0.2,0.2-0.3,0.3-0.4c0.1-0.1,0.3-0.2,0.5-0.3
				s0.4-0.1,0.7-0.1h0.6v1h-1c-0.4,0-0.7,0.1-1,0.4s-0.4,0.6-0.4,1v1.9h1.9v0.9h-4.3V61.8z"/>
			<path d="M117.7,62.9c-0.4,0-0.7-0.1-1.1-0.2c-0.3-0.1-0.6-0.3-0.8-0.5s-0.4-0.5-0.5-0.8s-0.2-0.7-0.2-1.1c0-0.4,0.1-0.8,0.2-1.1
				s0.3-0.6,0.5-0.9s0.5-0.4,0.8-0.5c0.3-0.1,0.6-0.2,1-0.2c0.4,0,0.7,0.1,1,0.2c0.3,0.1,0.5,0.3,0.8,0.5c0.2,0.2,0.4,0.5,0.5,0.8
				c0.1,0.3,0.2,0.7,0.2,1v0.4h-3.7v0.2c0,0.4,0.1,0.7,0.4,1c0.3,0.3,0.6,0.4,1,0.4c0.3,0,0.6-0.1,0.9-0.2c0.2-0.1,0.4-0.3,0.6-0.6
				l0.7,0.6c-0.2,0.3-0.4,0.6-0.8,0.8C118.7,62.8,118.2,62.9,117.7,62.9z M117.6,58.3c-0.2,0-0.4,0-0.5,0.1
				c-0.2,0.1-0.3,0.2-0.4,0.3c-0.1,0.1-0.2,0.3-0.3,0.4c-0.1,0.2-0.1,0.4-0.1,0.5v0.1h2.6v-0.1c0-0.4-0.1-0.7-0.3-1
				S118,58.3,117.6,58.3z"/>
			<path d="M125.5,62.7c-0.3,0-0.5-0.1-0.7-0.2c-0.2-0.2-0.3-0.4-0.3-0.6h-0.1c-0.1,0.3-0.3,0.6-0.5,0.7s-0.6,0.3-1,0.3
				c-0.5,0-0.9-0.1-1.3-0.4s-0.5-0.7-0.5-1.1c0-0.5,0.2-0.9,0.6-1.1c0.4-0.3,0.9-0.4,1.7-0.4h1v-0.4c0-0.7-0.4-1.1-1.1-1.1
				c-0.3,0-0.6,0.1-0.8,0.2c-0.2,0.1-0.4,0.3-0.5,0.5l-0.7-0.5c0.1-0.3,0.4-0.5,0.7-0.7c0.3-0.2,0.8-0.3,1.3-0.3
				c0.7,0,1.2,0.2,1.5,0.5c0.4,0.3,0.6,0.8,0.6,1.4v2.6h0.6v0.9H125.5z M123.2,62.1c0.4,0,0.6-0.1,0.9-0.2s0.3-0.4,0.3-0.6v-0.7h-1
				c-0.8,0-1.2,0.2-1.2,0.7v0.2c0,0.2,0.1,0.4,0.2,0.5C122.7,62,123,62.1,123.2,62.1z"/>
			<path d="M129.9,62.7c-0.5,0-0.8-0.1-1-0.4c-0.2-0.2-0.3-0.6-0.3-0.9v-3H127v-0.9h1.1c0.2,0,0.3,0,0.4-0.1s0.1-0.2,0.1-0.4v-1.3h1
				v1.8h2.2v0.9h-2.2v3.4h2.2v0.9H129.9z"/>
			<path d="M133.6,61.8h1.8v-3.4h-1.8v-0.9h2.9v4.3h1.6v0.9h-4.5V61.8z M135.9,56.6c-0.3,0-0.5-0.1-0.6-0.2
				c-0.1-0.1-0.2-0.3-0.2-0.4v-0.2c0-0.2,0.1-0.3,0.2-0.4c0.1-0.1,0.3-0.2,0.6-0.2c0.3,0,0.5,0.1,0.6,0.2s0.2,0.3,0.2,0.4V56
				c0,0.2-0.1,0.3-0.2,0.4S136.2,56.6,135.9,56.6z"/>
			<path d="M141.6,62.9c-0.4,0-0.7-0.1-1-0.2c-0.3-0.1-0.6-0.3-0.8-0.5s-0.4-0.5-0.5-0.9c-0.1-0.3-0.2-0.7-0.2-1.1
				c0-0.4,0.1-0.8,0.2-1.1c0.1-0.3,0.3-0.6,0.5-0.8s0.5-0.4,0.8-0.5c0.3-0.1,0.6-0.2,1-0.2s0.7,0.1,1,0.2c0.3,0.1,0.6,0.3,0.8,0.5
				s0.4,0.5,0.5,0.8c0.1,0.3,0.2,0.7,0.2,1.1c0,0.4-0.1,0.8-0.2,1.1s-0.3,0.6-0.5,0.9s-0.5,0.4-0.8,0.5
				C142.3,62.8,142,62.9,141.6,62.9z M141.6,62c0.4,0,0.7-0.1,1-0.4c0.2-0.2,0.4-0.6,0.4-1.1v-0.8c0-0.5-0.1-0.8-0.4-1.1
				c-0.2-0.2-0.6-0.4-1-0.4s-0.7,0.1-1,0.4c-0.2,0.2-0.4,0.6-0.4,1.1v0.8c0,0.5,0.1,0.8,0.4,1.1C140.9,61.9,141.2,62,141.6,62z"/>
			<path d="M145.4,62.7v-5.2h1.1v0.9h0c0.1-0.1,0.1-0.3,0.2-0.4c0.1-0.1,0.2-0.2,0.3-0.3c0.1-0.1,0.3-0.2,0.4-0.2
				c0.2-0.1,0.3-0.1,0.6-0.1c0.5,0,0.9,0.2,1.3,0.5s0.5,0.8,0.5,1.5v3.3h-1.1v-3.2c0-0.8-0.4-1.2-1.1-1.2c-0.1,0-0.3,0-0.4,0.1
				c-0.1,0-0.3,0.1-0.4,0.2c-0.1,0.1-0.2,0.2-0.3,0.3c-0.1,0.1-0.1,0.2-0.1,0.4v3.5H145.4z"/>
		</g>
	</g>
</g>
<g>
	<ellipse class="st10" cx="191.6" cy="79.5" rx="17.5" ry="11.2"/>
	<g>
		<g>
			<path d="M171.4,45.6h1.1v0.9h0.1c0.2-0.3,0.4-0.6,0.6-0.7c0.3-0.2,0.6-0.3,1-0.3c0.6,0,1.1,0.2,1.5,0.7c0.4,0.5,0.5,1.1,0.5,2
				c0,0.9-0.2,1.6-0.5,2c-0.4,0.5-0.8,0.7-1.5,0.7c-0.4,0-0.7-0.1-1-0.3s-0.5-0.4-0.6-0.7h-0.1v2.9h-1.1V45.6z M173.7,50
				c0.4,0,0.7-0.1,1-0.4c0.2-0.3,0.3-0.6,0.3-1v-0.8c0-0.4-0.1-0.8-0.3-1c-0.2-0.3-0.5-0.4-1-0.4c-0.2,0-0.3,0-0.4,0.1
				s-0.3,0.1-0.4,0.2c-0.1,0.1-0.2,0.2-0.3,0.3c-0.1,0.1-0.1,0.3-0.1,0.4V49c0,0.2,0,0.3,0.1,0.4c0.1,0.1,0.1,0.2,0.3,0.3
				c0.1,0.1,0.2,0.1,0.4,0.2S173.5,50,173.7,50z"/>
			<path d="M180.7,49.9L180.7,49.9c-0.1,0.1-0.2,0.3-0.3,0.4c-0.1,0.1-0.2,0.2-0.3,0.3c-0.1,0.1-0.3,0.2-0.4,0.2
				c-0.2,0.1-0.3,0.1-0.6,0.1c-0.5,0-0.9-0.2-1.3-0.5c-0.3-0.3-0.5-0.8-0.5-1.4v-3.3h1.1v3.2c0,0.8,0.4,1.2,1.1,1.2
				c0.1,0,0.3,0,0.4-0.1c0.1,0,0.3-0.1,0.4-0.2c0.1-0.1,0.2-0.2,0.3-0.3c0.1-0.1,0.1-0.2,0.1-0.4v-3.5h1.1v5.2h-1.1V49.9z"/>
			<path d="M185.6,50.9c-0.6,0-1-0.1-1.4-0.3c-0.4-0.2-0.7-0.4-1-0.7l0.7-0.6c0.2,0.2,0.5,0.4,0.8,0.6c0.3,0.1,0.6,0.2,1,0.2
				c0.4,0,0.6-0.1,0.9-0.2c0.2-0.1,0.3-0.3,0.3-0.6c0-0.1,0-0.2-0.1-0.3c0-0.1-0.1-0.1-0.2-0.2c-0.1,0-0.2-0.1-0.3-0.1
				c-0.1,0-0.2,0-0.3-0.1l-0.8-0.1c-0.2,0-0.4-0.1-0.6-0.1c-0.2-0.1-0.4-0.1-0.6-0.3c-0.2-0.1-0.3-0.3-0.4-0.4
				c-0.1-0.2-0.2-0.4-0.2-0.7c0-0.5,0.2-0.9,0.6-1.2c0.4-0.3,0.9-0.4,1.6-0.4c0.5,0,0.9,0.1,1.2,0.2c0.3,0.1,0.6,0.3,0.9,0.6
				l-0.6,0.6c-0.1-0.2-0.3-0.3-0.6-0.4s-0.6-0.2-1-0.2c-0.7,0-1.1,0.2-1.1,0.7c0,0.2,0.1,0.4,0.2,0.5c0.2,0.1,0.3,0.1,0.6,0.2
				l0.8,0.1c0.2,0,0.4,0.1,0.6,0.1c0.2,0.1,0.4,0.1,0.6,0.2c0.2,0.1,0.3,0.3,0.4,0.4s0.2,0.4,0.2,0.7c0,0.5-0.2,0.9-0.6,1.2
				C186.9,50.7,186.3,50.9,185.6,50.9z"/>
			<path d="M189.4,43.3h1.1v3.1h0c0.1-0.1,0.1-0.3,0.2-0.4c0.1-0.1,0.2-0.2,0.3-0.3c0.1-0.1,0.3-0.2,0.4-0.2
				c0.2-0.1,0.3-0.1,0.6-0.1c0.5,0,0.9,0.2,1.3,0.5s0.5,0.8,0.5,1.5v3.3h-1.1v-3.2c0-0.8-0.4-1.2-1.1-1.2c-0.1,0-0.3,0-0.4,0.1
				c-0.1,0-0.3,0.1-0.4,0.2c-0.1,0.1-0.2,0.2-0.3,0.3c-0.1,0.1-0.1,0.2-0.1,0.4v3.5h-1.1V43.3z"/>
			<path d="M203.9,50.7c-0.5,0-0.8-0.1-1-0.4c-0.2-0.2-0.3-0.6-0.3-0.9v-3H201v-0.9h1.1c0.2,0,0.3,0,0.4-0.1s0.1-0.2,0.1-0.4v-1.3h1
				v1.8h2.2v0.9h-2.2v3.4h2.2v0.9H203.9z"/>
			<path d="M209.6,50.9c-0.4,0-0.7-0.1-1-0.2c-0.3-0.1-0.6-0.3-0.8-0.5s-0.4-0.5-0.5-0.9c-0.1-0.3-0.2-0.7-0.2-1.1
				c0-0.4,0.1-0.8,0.2-1.1c0.1-0.3,0.3-0.6,0.5-0.8s0.5-0.4,0.8-0.5c0.3-0.1,0.6-0.2,1-0.2s0.7,0.1,1,0.2c0.3,0.1,0.6,0.3,0.8,0.5
				s0.4,0.5,0.5,0.8c0.1,0.3,0.2,0.7,0.2,1.1c0,0.4-0.1,0.8-0.2,1.1s-0.3,0.6-0.5,0.9s-0.5,0.4-0.8,0.5
				C210.3,50.8,210,50.9,209.6,50.9z M209.6,50c0.4,0,0.7-0.1,1-0.4c0.2-0.2,0.4-0.6,0.4-1.1v-0.8c0-0.5-0.1-0.8-0.4-1.1
				c-0.2-0.2-0.6-0.4-1-0.4s-0.7,0.1-1,0.4c-0.2,0.2-0.4,0.6-0.4,1.1v0.8c0,0.5,0.1,0.8,0.4,1.1C208.9,49.9,209.2,50,209.6,50z"/>
			<path d="M171.7,61.9L171.7,61.9c-0.2,0.3-0.4,0.6-0.7,0.7c-0.3,0.2-0.6,0.3-1,0.3c-0.6,0-1.1-0.2-1.5-0.7c-0.4-0.5-0.5-1.1-0.5-2
				c0-0.9,0.2-1.6,0.5-2c0.4-0.5,0.8-0.7,1.5-0.7c0.4,0,0.7,0.1,1,0.3c0.3,0.2,0.5,0.4,0.6,0.7h0.1v-3.1h1.1v7.4h-1.1V61.9z
				 M170.6,62c0.2,0,0.3,0,0.4-0.1s0.3-0.1,0.4-0.2c0.1-0.1,0.2-0.2,0.3-0.3c0.1-0.1,0.1-0.3,0.1-0.4v-1.7c0-0.2,0-0.3-0.1-0.4
				s-0.1-0.2-0.3-0.3c-0.1-0.1-0.2-0.1-0.4-0.2s-0.3-0.1-0.4-0.1c-0.4,0-0.7,0.1-1,0.4c-0.2,0.3-0.3,0.6-0.3,1v0.8
				c0,0.4,0.1,0.8,0.3,1C169.8,61.8,170.1,62,170.6,62z"/>
			<path d="M178.5,62.7c-0.3,0-0.5-0.1-0.7-0.2c-0.2-0.2-0.3-0.4-0.3-0.6h-0.1c-0.1,0.3-0.3,0.6-0.5,0.7s-0.6,0.3-1,0.3
				c-0.5,0-0.9-0.1-1.3-0.4s-0.5-0.7-0.5-1.1c0-0.5,0.2-0.9,0.6-1.1c0.4-0.3,0.9-0.4,1.7-0.4h1v-0.4c0-0.7-0.4-1.1-1.1-1.1
				c-0.3,0-0.6,0.1-0.8,0.2c-0.2,0.1-0.4,0.3-0.5,0.5l-0.7-0.5c0.1-0.3,0.4-0.5,0.7-0.7c0.3-0.2,0.8-0.3,1.3-0.3
				c0.7,0,1.2,0.2,1.5,0.5c0.4,0.3,0.6,0.8,0.6,1.4v2.6h0.6v0.9H178.5z M176.2,62.1c0.4,0,0.6-0.1,0.9-0.2s0.3-0.4,0.3-0.6v-0.7h-1
				c-0.8,0-1.2,0.2-1.2,0.7v0.2c0,0.2,0.1,0.4,0.2,0.5C175.7,62,176,62.1,176.2,62.1z"/>
			<path d="M182.9,62.7c-0.5,0-0.8-0.1-1-0.4c-0.2-0.2-0.3-0.6-0.3-0.9v-3H180v-0.9h1.1c0.2,0,0.3,0,0.4-0.1s0.1-0.2,0.1-0.4v-1.3h1
				v1.8h2.2v0.9h-2.2v3.4h2.2v0.9H182.9z"/>
			<path d="M190.5,62.7c-0.3,0-0.5-0.1-0.7-0.2c-0.2-0.2-0.3-0.4-0.3-0.6h-0.1c-0.1,0.3-0.3,0.6-0.5,0.7s-0.6,0.3-1,0.3
				c-0.5,0-0.9-0.1-1.3-0.4s-0.5-0.7-0.5-1.1c0-0.5,0.2-0.9,0.6-1.1c0.4-0.3,0.9-0.4,1.7-0.4h1v-0.4c0-0.7-0.4-1.1-1.1-1.1
				c-0.3,0-0.6,0.1-0.8,0.2c-0.2,0.1-0.4,0.3-0.5,0.5l-0.7-0.5c0.1-0.3,0.4-0.5,0.7-0.7c0.3-0.2,0.8-0.3,1.3-0.3
				c0.7,0,1.2,0.2,1.5,0.5c0.4,0.3,0.6,0.8,0.6,1.4v2.6h0.6v0.9H190.5z M188.2,62.1c0.4,0,0.6-0.1,0.9-0.2s0.3-0.4,0.3-0.6v-0.7h-1
				c-0.8,0-1.2,0.2-1.2,0.7v0.2c0,0.2,0.1,0.4,0.2,0.5C187.7,62,188,62.1,188.2,62.1z"/>
			<path d="M192.4,55.3h1.1v3.1h0.1c0.2-0.3,0.4-0.6,0.6-0.7c0.3-0.2,0.6-0.3,1-0.3c0.6,0,1.1,0.2,1.5,0.7c0.4,0.5,0.5,1.1,0.5,2
				c0,0.9-0.2,1.6-0.5,2c-0.4,0.5-0.8,0.7-1.5,0.7c-0.4,0-0.7-0.1-1-0.3s-0.5-0.4-0.6-0.7h-0.1v0.9h-1.1V55.3z M194.7,62
				c0.4,0,0.7-0.1,1-0.4c0.2-0.3,0.3-0.6,0.3-1v-0.8c0-0.4-0.1-0.8-0.3-1c-0.2-0.3-0.5-0.4-1-0.4c-0.2,0-0.3,0-0.4,0.1
				s-0.3,0.1-0.4,0.2c-0.1,0.1-0.2,0.2-0.3,0.3c-0.1,0.1-0.1,0.3-0.1,0.4V61c0,0.2,0,0.3,0.1,0.4c0.1,0.1,0.1,0.2,0.3,0.3
				c0.1,0.1,0.2,0.1,0.4,0.2S194.5,62,194.7,62z"/>
			<path d="M202.5,62.7c-0.3,0-0.5-0.1-0.7-0.2c-0.2-0.2-0.3-0.4-0.3-0.6h-0.1c-0.1,0.3-0.3,0.6-0.5,0.7s-0.6,0.3-1,0.3
				c-0.5,0-0.9-0.1-1.3-0.4s-0.5-0.7-0.5-1.1c0-0.5,0.2-0.9,0.6-1.1c0.4-0.3,0.9-0.4,1.7-0.4h1v-0.4c0-0.7-0.4-1.1-1.1-1.1
				c-0.3,0-0.6,0.1-0.8,0.2c-0.2,0.1-0.4,0.3-0.5,0.5l-0.7-0.5c0.1-0.3,0.4-0.5,0.7-0.7c0.3-0.2,0.8-0.3,1.3-0.3
				c0.7,0,1.2,0.2,1.5,0.5c0.4,0.3,0.6,0.8,0.6,1.4v2.6h0.6v0.9H202.5z M200.2,62.1c0.4,0,0.6-0.1,0.9-0.2s0.3-0.4,0.3-0.6v-0.7h-1
				c-0.8,0-1.2,0.2-1.2,0.7v0.2c0,0.2,0.1,0.4,0.2,0.5C199.7,62,200,62.1,200.2,62.1z"/>
			<path d="M206.6,62.9c-0.6,0-1-0.1-1.4-0.3c-0.4-0.2-0.7-0.4-1-0.7l0.7-0.6c0.2,0.2,0.5,0.4,0.8,0.6c0.3,0.1,0.6,0.2,1,0.2
				c0.4,0,0.6-0.1,0.9-0.2c0.2-0.1,0.3-0.3,0.3-0.6c0-0.1,0-0.2-0.1-0.3c0-0.1-0.1-0.1-0.2-0.2c-0.1,0-0.2-0.1-0.3-0.1
				c-0.1,0-0.2,0-0.3-0.1l-0.8-0.1c-0.2,0-0.4-0.1-0.6-0.1c-0.2-0.1-0.4-0.1-0.6-0.3c-0.2-0.1-0.3-0.3-0.4-0.4
				c-0.1-0.2-0.2-0.4-0.2-0.7c0-0.5,0.2-0.9,0.6-1.2c0.4-0.3,0.9-0.4,1.6-0.4c0.5,0,0.9,0.1,1.2,0.2c0.3,0.1,0.6,0.3,0.9,0.6
				l-0.6,0.6c-0.1-0.2-0.3-0.3-0.6-0.4s-0.6-0.2-1-0.2c-0.7,0-1.1,0.2-1.1,0.7c0,0.2,0.1,0.4,0.2,0.5c0.2,0.1,0.3,0.1,0.6,0.2
				l0.8,0.1c0.2,0,0.4,0.1,0.6,0.1c0.2,0.1,0.4,0.1,0.6,0.2c0.2,0.1,0.3,0.3,0.4,0.4s0.2,0.4,0.2,0.7c0,0.5-0.2,0.9-0.6,1.2
				C207.9,62.7,207.3,62.9,206.6,62.9z"/>
			<path d="M212.7,62.9c-0.4,0-0.7-0.1-1.1-0.2c-0.3-0.1-0.6-0.3-0.8-0.5s-0.4-0.5-0.5-0.8s-0.2-0.7-0.2-1.1c0-0.4,0.1-0.8,0.2-1.1
				s0.3-0.6,0.5-0.9s0.5-0.4,0.8-0.5c0.3-0.1,0.6-0.2,1-0.2c0.4,0,0.7,0.1,1,0.2c0.3,0.1,0.5,0.3,0.8,0.5c0.2,0.2,0.4,0.5,0.5,0.8
				c0.1,0.3,0.2,0.7,0.2,1v0.4h-3.7v0.2c0,0.4,0.1,0.7,0.4,1c0.3,0.3,0.6,0.4,1,0.4c0.3,0,0.6-0.1,0.9-0.2c0.2-0.1,0.4-0.3,0.6-0.6
				l0.7,0.6c-0.2,0.3-0.4,0.6-0.8,0.8C213.7,62.8,213.2,62.9,212.7,62.9z M212.6,58.3c-0.2,0-0.4,0-0.5,0.1
				c-0.2,0.1-0.3,0.2-0.4,0.3c-0.1,0.1-0.2,0.3-0.3,0.4c-0.1,0.2-0.1,0.4-0.1,0.5v0.1h2.6v-0.1c0-0.4-0.1-0.7-0.3-1
				S213,58.3,212.6,58.3z"/>
		</g>
	</g>
</g>
<g>
	<ellipse class="st10" cx="191.6" cy="118.9" rx="17.5" ry="11.2"/>
	<g>
		<g>
			<path d="M164.6,142.8c-0.6,0-1-0.1-1.4-0.3s-0.7-0.4-1-0.7l0.7-0.6c0.2,0.2,0.5,0.4,0.8,0.6s0.6,0.2,1,0.2c0.4,0,0.6-0.1,0.9-0.2
				c0.2-0.1,0.3-0.3,0.3-0.6c0-0.1,0-0.2-0.1-0.3c0-0.1-0.1-0.1-0.2-0.2s-0.2-0.1-0.3-0.1c-0.1,0-0.2,0-0.3-0.1l-0.8-0.1
				c-0.2,0-0.4-0.1-0.6-0.1c-0.2-0.1-0.4-0.1-0.6-0.3c-0.2-0.1-0.3-0.3-0.4-0.4c-0.1-0.2-0.2-0.4-0.2-0.7c0-0.5,0.2-0.9,0.6-1.2
				s0.9-0.4,1.6-0.4c0.5,0,0.9,0.1,1.2,0.2c0.3,0.1,0.6,0.3,0.9,0.6l-0.6,0.6c-0.1-0.2-0.3-0.3-0.6-0.4s-0.6-0.2-1-0.2
				c-0.7,0-1.1,0.2-1.1,0.7c0,0.2,0.1,0.4,0.2,0.5c0.2,0.1,0.3,0.1,0.6,0.2l0.8,0.1c0.2,0,0.4,0.1,0.6,0.1c0.2,0.1,0.4,0.1,0.6,0.2
				c0.2,0.1,0.3,0.3,0.4,0.4c0.1,0.2,0.2,0.4,0.2,0.7c0,0.5-0.2,0.9-0.6,1.2S165.3,142.8,164.6,142.8z"/>
			<path d="M170.9,142.7c-0.5,0-0.8-0.1-1-0.4s-0.3-0.6-0.3-0.9v-3H168v-0.9h1.1c0.2,0,0.3,0,0.4-0.1c0.1-0.1,0.1-0.2,0.1-0.4v-1.3
				h1v1.8h2.2v0.9h-2.2v3.4h2.2v0.9H170.9z"/>
			<path d="M178.5,142.7c-0.3,0-0.5-0.1-0.7-0.2s-0.3-0.4-0.3-0.6h-0.1c-0.1,0.3-0.3,0.6-0.5,0.7c-0.3,0.2-0.6,0.3-1,0.3
				c-0.5,0-0.9-0.1-1.3-0.4c-0.3-0.3-0.5-0.7-0.5-1.1c0-0.5,0.2-0.9,0.6-1.1c0.4-0.3,0.9-0.4,1.7-0.4h1v-0.4c0-0.7-0.4-1.1-1.1-1.1
				c-0.3,0-0.6,0.1-0.8,0.2c-0.2,0.1-0.4,0.3-0.5,0.5l-0.7-0.5c0.1-0.3,0.4-0.5,0.7-0.7c0.3-0.2,0.8-0.3,1.3-0.3
				c0.7,0,1.2,0.2,1.5,0.5c0.4,0.3,0.6,0.8,0.6,1.4v2.6h0.6v0.9H178.5z M176.2,142c0.4,0,0.6-0.1,0.9-0.2s0.3-0.4,0.3-0.6v-0.7h-1
				c-0.8,0-1.2,0.2-1.2,0.7v0.2c0,0.2,0.1,0.4,0.2,0.5C175.7,141.9,176,142,176.2,142z"/>
			<path d="M182.9,142.7c-0.5,0-0.8-0.1-1-0.4s-0.3-0.6-0.3-0.9v-3H180v-0.9h1.1c0.2,0,0.3,0,0.4-0.1c0.1-0.1,0.1-0.2,0.1-0.4v-1.3
				h1v1.8h2.2v0.9h-2.2v3.4h2.2v0.9H182.9z"/>
			<path d="M186.6,141.8h1.8v-3.4h-1.8v-0.9h2.9v4.3h1.6v0.9h-4.5V141.8z M188.9,136.6c-0.3,0-0.5-0.1-0.6-0.2
				c-0.1-0.1-0.2-0.3-0.2-0.4v-0.2c0-0.2,0.1-0.3,0.2-0.4c0.1-0.1,0.3-0.2,0.6-0.2c0.3,0,0.5,0.1,0.6,0.2s0.2,0.3,0.2,0.4v0.2
				c0,0.2-0.1,0.3-0.2,0.4S189.2,136.6,188.9,136.6z"/>
			<path d="M194.6,142.8c-0.6,0-1-0.1-1.4-0.3s-0.7-0.4-1-0.7l0.7-0.6c0.2,0.2,0.5,0.4,0.8,0.6s0.6,0.2,1,0.2c0.4,0,0.6-0.1,0.9-0.2
				c0.2-0.1,0.3-0.3,0.3-0.6c0-0.1,0-0.2-0.1-0.3c0-0.1-0.1-0.1-0.2-0.2s-0.2-0.1-0.3-0.1c-0.1,0-0.2,0-0.3-0.1l-0.8-0.1
				c-0.2,0-0.4-0.1-0.6-0.1c-0.2-0.1-0.4-0.1-0.6-0.3c-0.2-0.1-0.3-0.3-0.4-0.4c-0.1-0.2-0.2-0.4-0.2-0.7c0-0.5,0.2-0.9,0.6-1.2
				s0.9-0.4,1.6-0.4c0.5,0,0.9,0.1,1.2,0.2c0.3,0.1,0.6,0.3,0.9,0.6l-0.6,0.6c-0.1-0.2-0.3-0.3-0.6-0.4s-0.6-0.2-1-0.2
				c-0.7,0-1.1,0.2-1.1,0.7c0,0.2,0.1,0.4,0.2,0.5c0.2,0.1,0.3,0.1,0.6,0.2l0.8,0.1c0.2,0,0.4,0.1,0.6,0.1c0.2,0.1,0.4,0.1,0.6,0.2
				c0.2,0.1,0.3,0.3,0.4,0.4c0.1,0.2,0.2,0.4,0.2,0.7c0,0.5-0.2,0.9-0.6,1.2S195.3,142.8,194.6,142.8z"/>
			<path d="M200.9,142.7c-0.5,0-0.8-0.1-1-0.4s-0.3-0.6-0.3-0.9v-3H198v-0.9h1.1c0.2,0,0.3,0,0.4-0.1c0.1-0.1,0.1-0.2,0.1-0.4v-1.3
				h1v1.8h2.2v0.9h-2.2v3.4h2.2v0.9H200.9z"/>
			<path d="M204.6,141.8h1.8v-3.4h-1.8v-0.9h2.9v4.3h1.6v0.9h-4.5V141.8z M206.9,136.6c-0.3,0-0.5-0.1-0.6-0.2
				c-0.1-0.1-0.2-0.3-0.2-0.4v-0.2c0-0.2,0.1-0.3,0.2-0.4c0.1-0.1,0.3-0.2,0.6-0.2c0.3,0,0.5,0.1,0.6,0.2s0.2,0.3,0.2,0.4v0.2
				c0,0.2-0.1,0.3-0.2,0.4S207.2,136.6,206.9,136.6z"/>
			<path d="M212.8,142.8c-0.4,0-0.7-0.1-1-0.2c-0.3-0.1-0.6-0.3-0.8-0.5c-0.2-0.2-0.4-0.5-0.5-0.8c-0.1-0.3-0.2-0.7-0.2-1.1
				s0.1-0.8,0.2-1.1c0.1-0.3,0.3-0.6,0.5-0.8c0.2-0.2,0.5-0.4,0.8-0.5c0.3-0.1,0.6-0.2,1-0.2c0.5,0,1,0.1,1.3,0.3
				c0.3,0.2,0.6,0.5,0.7,0.9l-0.9,0.5c-0.1-0.2-0.2-0.4-0.4-0.6c-0.2-0.1-0.4-0.2-0.7-0.2c-0.4,0-0.7,0.1-1,0.4
				c-0.2,0.3-0.3,0.6-0.3,1v0.9c0,0.4,0.1,0.7,0.3,1c0.2,0.3,0.6,0.4,1,0.4c0.3,0,0.6-0.1,0.8-0.2c0.2-0.1,0.4-0.3,0.5-0.6l0.8,0.5
				c-0.2,0.4-0.4,0.7-0.8,0.9C213.8,142.7,213.3,142.8,212.8,142.8z"/>
			<path d="M218.6,142.8c-0.6,0-1-0.1-1.4-0.3s-0.7-0.4-1-0.7l0.7-0.6c0.2,0.2,0.5,0.4,0.8,0.6s0.6,0.2,1,0.2c0.4,0,0.6-0.1,0.9-0.2
				c0.2-0.1,0.3-0.3,0.3-0.6c0-0.1,0-0.2-0.1-0.3c0-0.1-0.1-0.1-0.2-0.2s-0.2-0.1-0.3-0.1c-0.1,0-0.2,0-0.3-0.1l-0.8-0.1
				c-0.2,0-0.4-0.1-0.6-0.1c-0.2-0.1-0.4-0.1-0.6-0.3c-0.2-0.1-0.3-0.3-0.4-0.4c-0.1-0.2-0.2-0.4-0.2-0.7c0-0.5,0.2-0.9,0.6-1.2
				s0.9-0.4,1.6-0.4c0.5,0,0.9,0.1,1.2,0.2c0.3,0.1,0.6,0.3,0.9,0.6l-0.6,0.6c-0.1-0.2-0.3-0.3-0.6-0.4s-0.6-0.2-1-0.2
				c-0.7,0-1.1,0.2-1.1,0.7c0,0.2,0.1,0.4,0.2,0.5c0.2,0.1,0.3,0.1,0.6,0.2l0.8,0.1c0.2,0,0.4,0.1,0.6,0.1c0.2,0.1,0.4,0.1,0.6,0.2
				c0.2,0.1,0.3,0.3,0.4,0.4c0.1,0.2,0.2,0.4,0.2,0.7c0,0.5-0.2,0.9-0.6,1.2S219.3,142.8,218.6,142.8z"/>
			<path d="M173.7,154.8c-0.4,0-0.7-0.1-1.1-0.2s-0.6-0.3-0.8-0.5s-0.4-0.5-0.5-0.8s-0.2-0.7-0.2-1.1s0.1-0.8,0.2-1.1
				c0.1-0.3,0.3-0.6,0.5-0.9c0.2-0.2,0.5-0.4,0.8-0.5c0.3-0.1,0.6-0.2,1-0.2c0.4,0,0.7,0.1,1,0.2c0.3,0.1,0.5,0.3,0.8,0.5
				c0.2,0.2,0.4,0.5,0.5,0.8c0.1,0.3,0.2,0.7,0.2,1v0.4h-3.7v0.2c0,0.4,0.1,0.7,0.4,1c0.3,0.3,0.6,0.4,1,0.4c0.3,0,0.6-0.1,0.9-0.2
				c0.2-0.1,0.4-0.3,0.6-0.6l0.7,0.6c-0.2,0.3-0.4,0.6-0.8,0.8C174.7,154.7,174.2,154.8,173.7,154.8z M173.6,150.2
				c-0.2,0-0.4,0-0.5,0.1c-0.2,0.1-0.3,0.2-0.4,0.3c-0.1,0.1-0.2,0.3-0.3,0.4c-0.1,0.2-0.1,0.3-0.1,0.5v0.1h2.6v-0.1
				c0-0.4-0.1-0.7-0.3-1S174,150.2,173.6,150.2z"/>
			<path d="M180.7,153.8L180.7,153.8c-0.2,0.3-0.4,0.6-0.7,0.7c-0.3,0.2-0.6,0.3-1,0.3c-0.6,0-1.1-0.2-1.5-0.7
				c-0.4-0.5-0.5-1.1-0.5-2s0.2-1.6,0.5-2c0.4-0.5,0.8-0.7,1.5-0.7c0.4,0,0.7,0.1,1,0.3c0.3,0.2,0.5,0.4,0.6,0.7h0.1v-3.1h1.1v7.4
				h-1.1V153.8z M179.6,153.9c0.2,0,0.3,0,0.4-0.1s0.3-0.1,0.4-0.2c0.1-0.1,0.2-0.2,0.3-0.3c0.1-0.1,0.1-0.3,0.1-0.4v-1.7
				c0-0.2,0-0.3-0.1-0.4c-0.1-0.1-0.1-0.2-0.3-0.3c-0.1-0.1-0.2-0.1-0.4-0.2s-0.3-0.1-0.4-0.1c-0.4,0-0.7,0.1-1,0.4
				c-0.2,0.3-0.3,0.6-0.3,1v0.8c0,0.4,0.1,0.8,0.3,1C178.8,153.8,179.1,153.9,179.6,153.9z"/>
			<path d="M183.6,153.8h1.8v-3.4h-1.8v-0.9h2.9v4.3h1.6v0.9h-4.5V153.8z M185.9,148.6c-0.3,0-0.5-0.1-0.6-0.2
				c-0.1-0.1-0.2-0.3-0.2-0.4v-0.2c0-0.2,0.1-0.3,0.2-0.4c0.1-0.1,0.3-0.2,0.6-0.2c0.3,0,0.5,0.1,0.6,0.2s0.2,0.3,0.2,0.4v0.2
				c0,0.2-0.1,0.3-0.2,0.4S186.2,148.6,185.9,148.6z"/>
			<path d="M191.9,154.7c-0.5,0-0.8-0.1-1-0.4s-0.3-0.6-0.3-0.9v-3H189v-0.9h1.1c0.2,0,0.3,0,0.4-0.1c0.1-0.1,0.1-0.2,0.1-0.4v-1.3
				h1v1.8h2.2v0.9h-2.2v3.4h2.2v0.9H191.9z"/>
			<path d="M195.6,153.8h1.8v-3.4h-1.8v-0.9h2.9v4.3h1.6v0.9h-4.5V153.8z M197.9,148.6c-0.3,0-0.5-0.1-0.6-0.2
				c-0.1-0.1-0.2-0.3-0.2-0.4v-0.2c0-0.2,0.1-0.3,0.2-0.4c0.1-0.1,0.3-0.2,0.6-0.2c0.3,0,0.5,0.1,0.6,0.2s0.2,0.3,0.2,0.4v0.2
				c0,0.2-0.1,0.3-0.2,0.4S198.2,148.6,197.9,148.6z"/>
			<path d="M201.4,154.7v-5.2h1.1v0.9h0c0.1-0.1,0.1-0.3,0.2-0.4c0.1-0.1,0.2-0.2,0.3-0.3c0.1-0.1,0.3-0.2,0.4-0.2
				c0.2-0.1,0.3-0.1,0.6-0.1c0.5,0,0.9,0.2,1.3,0.5s0.5,0.8,0.5,1.5v3.3h-1.1v-3.2c0-0.8-0.4-1.2-1.1-1.2c-0.1,0-0.3,0-0.4,0.1
				c-0.1,0-0.3,0.1-0.4,0.2c-0.1,0.1-0.2,0.2-0.3,0.3c-0.1,0.1-0.1,0.2-0.1,0.4v3.5H201.4z"/>
			<path d="M212.3,155.2c0,0.5-0.2,0.9-0.7,1.2c-0.4,0.3-1.1,0.4-2,0.4c-0.4,0-0.8,0-1.1-0.1c-0.3-0.1-0.6-0.1-0.7-0.2
				c-0.2-0.1-0.3-0.2-0.4-0.4s-0.1-0.3-0.1-0.5c0-0.3,0.1-0.5,0.2-0.7c0.2-0.2,0.4-0.3,0.7-0.3v-0.1c-0.2-0.1-0.3-0.2-0.4-0.3
				c-0.1-0.1-0.2-0.3-0.2-0.5c0-0.3,0.1-0.4,0.3-0.6c0.2-0.1,0.4-0.2,0.7-0.3v-0.1c-0.3-0.1-0.6-0.4-0.7-0.6s-0.3-0.6-0.3-1
				c0-0.3,0.1-0.5,0.1-0.7c0.1-0.2,0.2-0.4,0.4-0.6c0.2-0.2,0.4-0.3,0.7-0.4c0.3-0.1,0.5-0.1,0.9-0.1c0.4,0,0.7,0.1,1,0.2v-0.2
				c0-0.2,0.1-0.4,0.2-0.5c0.1-0.1,0.3-0.2,0.5-0.2h0.9v0.9H211v0.2c0.2,0.2,0.4,0.3,0.5,0.6c0.1,0.2,0.2,0.5,0.2,0.8
				c0,0.3-0.1,0.5-0.1,0.7c-0.1,0.2-0.2,0.4-0.4,0.6c-0.2,0.2-0.4,0.3-0.7,0.4c-0.3,0.1-0.5,0.1-0.9,0.1c-0.2,0-0.4,0-0.6-0.1
				c-0.1,0-0.2,0.1-0.4,0.2s-0.2,0.2-0.2,0.3c0,0.2,0.1,0.3,0.2,0.3s0.3,0.1,0.6,0.1h1.2c0.7,0,1.2,0.1,1.5,0.4
				C212.2,154.5,212.3,154.8,212.3,155.2z M211.3,155.3c0-0.2-0.1-0.3-0.2-0.4c-0.1-0.1-0.4-0.2-0.8-0.2h-1.8
				c-0.3,0.1-0.4,0.3-0.4,0.6c0,0.2,0.1,0.4,0.2,0.5c0.2,0.1,0.4,0.2,0.8,0.2h0.8c0.4,0,0.7-0.1,0.9-0.2S211.3,155.5,211.3,155.3z
				 M209.6,152.3c0.4,0,0.6-0.1,0.8-0.2c0.2-0.2,0.2-0.4,0.2-0.7v-0.3c0-0.3-0.1-0.5-0.2-0.7c-0.2-0.2-0.4-0.2-0.8-0.2
				s-0.6,0.1-0.8,0.2c-0.2,0.2-0.2,0.4-0.2,0.7v0.3c0,0.3,0.1,0.5,0.2,0.7C209,152.2,209.2,152.3,209.6,152.3z"/>
		</g>
	</g>
</g>
<g>
	<ellipse class="st10" cx="283.7" cy="100.3" rx="17.5" ry="11.2"/>
	<g>
		<g>
			<path d="M272.5,70.7h1.7v-3.4h-1.8v-0.9h1.8v-0.9c0-0.4,0.1-0.7,0.3-0.9c0.2-0.2,0.5-0.4,1-0.4h1.7v0.9h-2v1.3h2v0.9h-2v3.4h1.7
				v0.9h-4.5V70.7z"/>
			<path d="M278.8,70.7h1.8v-3.4h-1.8v-0.9h2.8v4.3h1.7v0.9h-4.5V70.7z M281.1,65.5c-0.3,0-0.5-0.1-0.6-0.2
				c-0.1-0.1-0.2-0.3-0.2-0.4v-0.2c0-0.2,0.1-0.3,0.2-0.4c0.1-0.1,0.3-0.2,0.6-0.2c0.3,0,0.5,0.1,0.6,0.2c0.1,0.1,0.2,0.3,0.2,0.4
				v0.2c0,0.2-0.1,0.3-0.2,0.4C281.5,65.4,281.3,65.5,281.1,65.5z"/>
			<path d="M284.5,70.7h1.7v-5.6h-1.7v-0.9h2.8v6.5h1.7v0.9h-4.5V70.7z"/>
			<path d="M290.5,70.7h1.7v-5.6h-1.7v-0.9h2.8v6.5h1.7v0.9h-4.5V70.7z"/>
			<path d="M269.1,83.6c-0.5,0-0.8-0.1-1-0.4c-0.2-0.2-0.3-0.6-0.3-0.9v-3h-1.6v-0.9h1.1c0.2,0,0.3,0,0.4-0.1s0.1-0.2,0.1-0.4v-1.3
				h1v1.8h2.2v0.9h-2.2v3.4h2.2v0.9H269.1z"/>
			<path d="M276.7,83.6c-0.3,0-0.5-0.1-0.7-0.2c-0.2-0.2-0.3-0.4-0.3-0.6h-0.1c-0.1,0.3-0.3,0.6-0.5,0.7c-0.3,0.2-0.6,0.3-1,0.3
				c-0.5,0-0.9-0.1-1.3-0.4s-0.5-0.7-0.5-1.1c0-0.5,0.2-0.9,0.6-1.1c0.4-0.3,0.9-0.4,1.7-0.4h1v-0.4c0-0.7-0.4-1.1-1.1-1.1
				c-0.3,0-0.6,0.1-0.8,0.2c-0.2,0.1-0.4,0.3-0.5,0.5l-0.7-0.5c0.1-0.3,0.4-0.5,0.7-0.7c0.3-0.2,0.8-0.3,1.3-0.3
				c0.7,0,1.2,0.2,1.5,0.5c0.4,0.3,0.6,0.8,0.6,1.4v2.6h0.6v0.9H276.7z M274.4,82.9c0.4,0,0.6-0.1,0.9-0.2s0.3-0.4,0.3-0.6v-0.7h-1
				c-0.8,0-1.2,0.2-1.2,0.7v0.2c0,0.2,0.1,0.4,0.2,0.5C273.9,82.8,274.1,82.9,274.4,82.9z"/>
			<path d="M278.5,76.2h1.1v3.1h0.1c0.2-0.3,0.4-0.6,0.6-0.7c0.3-0.2,0.6-0.3,1-0.3c0.6,0,1.1,0.2,1.5,0.7c0.4,0.5,0.5,1.1,0.5,2
				c0,0.9-0.2,1.6-0.5,2c-0.4,0.5-0.8,0.7-1.5,0.7c-0.4,0-0.7-0.1-1-0.3c-0.3-0.2-0.5-0.4-0.6-0.7h-0.1v0.9h-1.1V76.2z M280.8,82.8
				c0.4,0,0.7-0.1,1-0.4c0.2-0.3,0.3-0.6,0.3-1v-0.8c0-0.4-0.1-0.8-0.3-1c-0.2-0.3-0.5-0.4-1-0.4c-0.2,0-0.3,0-0.4,0.1
				c-0.1,0-0.3,0.1-0.4,0.2c-0.1,0.1-0.2,0.2-0.3,0.3c-0.1,0.1-0.1,0.3-0.1,0.4v1.7c0,0.2,0,0.3,0.1,0.4c0.1,0.1,0.1,0.2,0.3,0.3
				c0.1,0.1,0.2,0.1,0.4,0.2C280.5,82.8,280.6,82.8,280.8,82.8z"/>
			<path d="M284.5,82.7h1.7v-5.6h-1.7v-0.9h2.8v6.5h1.7v0.9h-4.5V82.7z"/>
			<path d="M292.9,83.7c-0.4,0-0.7-0.1-1.1-0.2c-0.3-0.1-0.6-0.3-0.8-0.5c-0.2-0.2-0.4-0.5-0.5-0.8s-0.2-0.7-0.2-1.1
				c0-0.4,0.1-0.8,0.2-1.1c0.1-0.3,0.3-0.6,0.5-0.9s0.5-0.4,0.8-0.5c0.3-0.1,0.6-0.2,1-0.2c0.4,0,0.7,0.1,1,0.2
				c0.3,0.1,0.5,0.3,0.8,0.5c0.2,0.2,0.4,0.5,0.5,0.8c0.1,0.3,0.2,0.7,0.2,1v0.4h-3.7v0.2c0,0.4,0.1,0.7,0.4,1
				c0.3,0.3,0.6,0.4,1,0.4c0.3,0,0.6-0.1,0.9-0.2c0.2-0.1,0.4-0.3,0.6-0.6l0.7,0.6c-0.2,0.3-0.4,0.6-0.8,0.8S293.4,83.7,292.9,83.7z
				 M292.8,79.1c-0.2,0-0.4,0-0.5,0.1c-0.2,0.1-0.3,0.2-0.4,0.3s-0.2,0.3-0.3,0.4c-0.1,0.2-0.1,0.4-0.1,0.5v0.1h2.6v-0.1
				c0-0.4-0.1-0.7-0.3-1C293.5,79.2,293.2,79.1,292.8,79.1z"/>
			<path d="M298.8,83.7c-0.6,0-1-0.1-1.4-0.3c-0.4-0.2-0.7-0.4-1-0.7l0.7-0.6c0.2,0.2,0.5,0.4,0.8,0.6c0.3,0.1,0.6,0.2,1,0.2
				c0.4,0,0.6-0.1,0.9-0.2c0.2-0.1,0.3-0.3,0.3-0.6c0-0.1,0-0.2-0.1-0.3c0-0.1-0.1-0.1-0.2-0.2c-0.1,0-0.2-0.1-0.3-0.1
				c-0.1,0-0.2,0-0.3-0.1l-0.8-0.1c-0.2,0-0.4-0.1-0.6-0.1s-0.4-0.1-0.6-0.3c-0.2-0.1-0.3-0.3-0.4-0.4s-0.2-0.4-0.2-0.7
				c0-0.5,0.2-0.9,0.6-1.2c0.4-0.3,0.9-0.4,1.6-0.4c0.5,0,0.9,0.1,1.2,0.2s0.6,0.3,0.9,0.6l-0.6,0.6c-0.1-0.2-0.3-0.3-0.6-0.4
				c-0.2-0.1-0.6-0.2-1-0.2c-0.7,0-1.1,0.2-1.1,0.7c0,0.2,0.1,0.4,0.2,0.5c0.2,0.1,0.3,0.1,0.6,0.2l0.8,0.1c0.2,0,0.4,0.1,0.6,0.1
				c0.2,0.1,0.4,0.1,0.6,0.2c0.2,0.1,0.3,0.3,0.4,0.4s0.2,0.4,0.2,0.7c0,0.5-0.2,0.9-0.6,1.2C300,83.5,299.5,83.7,298.8,83.7z"/>
		</g>
	</g>
</g>
<g>
	<ellipse class="st10" cx="126.6" cy="118.9" rx="17.5" ry="11.2"/>
	<g>
		<g>
			<path d="M112.4,141.8h1.7v-5.6h-1.7v-0.9h2.8v6.5h1.7v0.9h-4.5V141.8z"/>
			<path d="M120.6,142.8c-0.4,0-0.7-0.1-1-0.2c-0.3-0.1-0.6-0.3-0.8-0.5s-0.4-0.5-0.5-0.8c-0.1-0.3-0.2-0.7-0.2-1.1s0.1-0.8,0.2-1.1
				c0.1-0.3,0.3-0.6,0.5-0.8s0.5-0.4,0.8-0.5c0.3-0.1,0.6-0.2,1-0.2s0.7,0.1,1,0.2c0.3,0.1,0.6,0.3,0.8,0.5s0.4,0.5,0.5,0.8
				s0.2,0.7,0.2,1.1s-0.1,0.8-0.2,1.1c-0.1,0.3-0.3,0.6-0.5,0.8s-0.5,0.4-0.8,0.5S121,142.8,120.6,142.8z M120.6,141.9
				c0.4,0,0.7-0.1,1-0.4c0.2-0.2,0.4-0.6,0.4-1.1v-0.8c0-0.5-0.1-0.8-0.4-1.1c-0.2-0.2-0.6-0.4-1-0.4s-0.7,0.1-1,0.4
				c-0.2,0.2-0.4,0.6-0.4,1.1v0.8c0,0.5,0.1,0.8,0.4,1.1C119.9,141.8,120.2,141.9,120.6,141.9z"/>
			<path d="M129.3,143.2c0,0.5-0.2,0.9-0.7,1.2c-0.4,0.3-1.1,0.4-2,0.4c-0.4,0-0.8,0-1.1-0.1c-0.3-0.1-0.6-0.1-0.7-0.2
				c-0.2-0.1-0.3-0.2-0.4-0.4s-0.1-0.3-0.1-0.5c0-0.3,0.1-0.5,0.2-0.7c0.2-0.2,0.4-0.3,0.7-0.3v-0.1c-0.2-0.1-0.3-0.2-0.4-0.3
				c-0.1-0.1-0.2-0.3-0.2-0.5c0-0.3,0.1-0.4,0.3-0.6c0.2-0.1,0.4-0.2,0.7-0.3v-0.1c-0.3-0.1-0.6-0.4-0.7-0.6s-0.3-0.6-0.3-1
				c0-0.3,0.1-0.5,0.1-0.7c0.1-0.2,0.2-0.4,0.4-0.6c0.2-0.2,0.4-0.3,0.7-0.4c0.3-0.1,0.5-0.1,0.9-0.1c0.4,0,0.7,0.1,1,0.2v-0.2
				c0-0.2,0.1-0.4,0.2-0.5c0.1-0.1,0.3-0.2,0.5-0.2h0.9v0.9H128v0.2c0.2,0.2,0.4,0.3,0.5,0.6c0.1,0.2,0.2,0.5,0.2,0.8
				c0,0.3-0.1,0.5-0.1,0.7c-0.1,0.2-0.2,0.4-0.4,0.6c-0.2,0.2-0.4,0.3-0.7,0.4c-0.3,0.1-0.5,0.1-0.9,0.1c-0.2,0-0.4,0-0.6-0.1
				c-0.1,0-0.2,0.1-0.4,0.2s-0.2,0.2-0.2,0.3c0,0.2,0.1,0.3,0.2,0.3s0.3,0.1,0.6,0.1h1.2c0.7,0,1.2,0.1,1.5,0.4
				C129.2,142.5,129.3,142.8,129.3,143.2z M128.3,143.3c0-0.2-0.1-0.3-0.2-0.4c-0.1-0.1-0.4-0.2-0.8-0.2h-1.8
				c-0.3,0.1-0.4,0.3-0.4,0.6c0,0.2,0.1,0.4,0.2,0.5c0.2,0.1,0.4,0.2,0.8,0.2h0.8c0.4,0,0.7-0.1,0.9-0.2S128.3,143.5,128.3,143.3z
				 M126.6,140.3c0.4,0,0.6-0.1,0.8-0.2c0.2-0.2,0.2-0.4,0.2-0.7v-0.3c0-0.3-0.1-0.5-0.2-0.7c-0.2-0.2-0.4-0.2-0.8-0.2
				s-0.6,0.1-0.8,0.2c-0.2,0.2-0.2,0.4-0.2,0.7v0.3c0,0.3,0.1,0.5,0.2,0.7C126,140.2,126.2,140.3,126.6,140.3z"/>
			<path d="M130.6,141.8h1.8v-3.4h-1.8v-0.9h2.9v4.3h1.6v0.9h-4.5V141.8z M132.9,136.6c-0.3,0-0.5-0.1-0.6-0.2
				c-0.1-0.1-0.2-0.3-0.2-0.4v-0.2c0-0.2,0.1-0.3,0.2-0.4c0.1-0.1,0.3-0.2,0.6-0.2c0.3,0,0.5,0.1,0.6,0.2s0.2,0.3,0.2,0.4v0.2
				c0,0.2-0.1,0.3-0.2,0.4S133.2,136.6,132.9,136.6z"/>
			<path d="M136.4,142.7v-5.2h1.1v0.9h0c0.1-0.1,0.1-0.3,0.2-0.4c0.1-0.1,0.2-0.2,0.3-0.3c0.1-0.1,0.3-0.2,0.4-0.2
				c0.2-0.1,0.3-0.1,0.6-0.1c0.5,0,0.9,0.2,1.3,0.5s0.5,0.8,0.5,1.5v3.3h-1.1v-3.2c0-0.8-0.4-1.2-1.1-1.2c-0.1,0-0.3,0-0.4,0.1
				c-0.1,0-0.3,0.1-0.4,0.2c-0.1,0.1-0.2,0.2-0.3,0.3c-0.1,0.1-0.1,0.2-0.1,0.4v3.5H136.4z"/>
		</g>
	</g>
</g>
<g>
	<ellipse class="st10" cx="375.6" cy="118.9" rx="17.5" ry="11.2"/>
	<g>
		<g>
			<path d="M364.4,137.5h1.1v0.9h0.1c0.2-0.3,0.4-0.6,0.6-0.7c0.3-0.2,0.6-0.3,1-0.3c0.6,0,1.1,0.2,1.5,0.7c0.4,0.5,0.5,1.1,0.5,2
				s-0.2,1.6-0.5,2c-0.4,0.5-0.8,0.7-1.5,0.7c-0.4,0-0.7-0.1-1-0.3c-0.3-0.2-0.5-0.4-0.6-0.7h-0.1v2.9h-1.1V137.5z M366.7,141.9
				c0.4,0,0.7-0.1,1-0.4c0.2-0.3,0.3-0.6,0.3-1v-0.8c0-0.4-0.1-0.8-0.3-1c-0.2-0.3-0.5-0.4-1-0.4c-0.2,0-0.3,0-0.5,0.1
				c-0.1,0-0.3,0.1-0.4,0.2s-0.2,0.2-0.3,0.3c-0.1,0.1-0.1,0.3-0.1,0.4v1.7c0,0.2,0,0.3,0.1,0.4c0.1,0.1,0.1,0.2,0.3,0.3
				c0.1,0.1,0.2,0.1,0.4,0.2C366.4,141.9,366.5,141.9,366.7,141.9z"/>
			<path d="M374.6,142.7c-0.3,0-0.5-0.1-0.7-0.2c-0.2-0.2-0.3-0.4-0.3-0.6h0c-0.1,0.3-0.3,0.6-0.5,0.7c-0.3,0.2-0.6,0.3-1,0.3
				c-0.5,0-0.9-0.1-1.3-0.4c-0.3-0.3-0.5-0.7-0.5-1.1c0-0.5,0.2-0.9,0.6-1.1c0.4-0.3,0.9-0.4,1.7-0.4h1v-0.4c0-0.7-0.4-1.1-1.1-1.1
				c-0.3,0-0.6,0.1-0.8,0.2s-0.4,0.3-0.5,0.5l-0.7-0.5c0.1-0.3,0.4-0.5,0.7-0.7c0.3-0.2,0.8-0.3,1.3-0.3c0.7,0,1.2,0.2,1.5,0.5
				c0.4,0.3,0.6,0.8,0.6,1.4v2.6h0.7v0.9H374.6z M372.3,142c0.4,0,0.6-0.1,0.9-0.2s0.3-0.4,0.3-0.6v-0.7h-1c-0.8,0-1.2,0.2-1.2,0.7
				v0.2c0,0.2,0.1,0.4,0.2,0.5C371.8,141.9,372,142,372.3,142z"/>
			<path d="M378.7,142.8c-0.6,0-1-0.1-1.4-0.3s-0.7-0.4-1-0.7l0.7-0.6c0.2,0.2,0.5,0.4,0.8,0.6s0.6,0.2,1,0.2c0.4,0,0.6-0.1,0.9-0.2
				c0.2-0.1,0.3-0.3,0.3-0.6c0-0.1,0-0.2-0.1-0.3c0-0.1-0.1-0.1-0.2-0.2s-0.2-0.1-0.3-0.1c-0.1,0-0.2,0-0.3-0.1l-0.8-0.1
				c-0.2,0-0.4-0.1-0.6-0.1c-0.2-0.1-0.4-0.1-0.6-0.3c-0.2-0.1-0.3-0.3-0.4-0.4c-0.1-0.2-0.2-0.4-0.2-0.7c0-0.5,0.2-0.9,0.6-1.2
				s0.9-0.4,1.6-0.4c0.5,0,0.9,0.1,1.2,0.2c0.3,0.1,0.6,0.3,0.9,0.6l-0.6,0.6c-0.1-0.2-0.3-0.3-0.6-0.4c-0.2-0.1-0.6-0.2-1-0.2
				c-0.7,0-1.1,0.2-1.1,0.7c0,0.2,0.1,0.4,0.2,0.5c0.2,0.1,0.3,0.1,0.6,0.2l0.8,0.1c0.2,0,0.4,0.1,0.6,0.1c0.2,0.1,0.4,0.1,0.5,0.2
				c0.2,0.1,0.3,0.3,0.4,0.4c0.1,0.2,0.2,0.4,0.2,0.7c0,0.5-0.2,0.9-0.6,1.2S379.4,142.8,378.7,142.8z"/>
			<path d="M385,142.7c-0.5,0-0.8-0.1-1-0.4c-0.2-0.2-0.3-0.6-0.3-0.9v-3H382v-0.9h1.1c0.2,0,0.3,0,0.4-0.1c0.1-0.1,0.1-0.2,0.1-0.4
				v-1.3h1v1.8h2.2v0.9h-2.2v3.4h2.2v0.9H385z"/>
			<path d="M348.7,154.8c-0.6,0-1-0.1-1.4-0.3s-0.7-0.4-1-0.7l0.7-0.6c0.2,0.2,0.5,0.4,0.8,0.6s0.6,0.2,1,0.2c0.4,0,0.6-0.1,0.9-0.2
				c0.2-0.1,0.3-0.3,0.3-0.6c0-0.1,0-0.2-0.1-0.3c0-0.1-0.1-0.1-0.2-0.2s-0.2-0.1-0.3-0.1c-0.1,0-0.2,0-0.3-0.1l-0.8-0.1
				c-0.2,0-0.4-0.1-0.6-0.1c-0.2-0.1-0.4-0.1-0.6-0.3c-0.2-0.1-0.3-0.3-0.4-0.4c-0.1-0.2-0.2-0.4-0.2-0.7c0-0.5,0.2-0.9,0.6-1.2
				s0.9-0.4,1.6-0.4c0.5,0,0.9,0.1,1.2,0.2s0.6,0.3,0.9,0.6l-0.6,0.6c-0.1-0.2-0.3-0.3-0.6-0.4c-0.2-0.1-0.6-0.2-1-0.2
				c-0.7,0-1.1,0.2-1.1,0.7c0,0.2,0.1,0.4,0.2,0.5c0.2,0.1,0.3,0.1,0.6,0.2l0.8,0.1c0.2,0,0.4,0.1,0.6,0.1c0.2,0.1,0.4,0.1,0.6,0.2
				c0.2,0.1,0.3,0.3,0.4,0.4c0.1,0.2,0.2,0.4,0.2,0.7c0,0.5-0.2,0.9-0.6,1.2S349.4,154.8,348.7,154.8z"/>
			<path d="M355,154.7c-0.5,0-0.8-0.1-1-0.4c-0.2-0.2-0.3-0.6-0.3-0.9v-3H352v-0.9h1.1c0.2,0,0.3,0,0.4-0.1c0.1-0.1,0.1-0.2,0.1-0.4
				v-1.3h1v1.8h2.2v0.9h-2.2v3.4h2.2v0.9H355z"/>
			<path d="M362.6,154.7c-0.3,0-0.5-0.1-0.7-0.2c-0.2-0.2-0.3-0.4-0.3-0.6h-0.1c-0.1,0.3-0.3,0.6-0.5,0.7c-0.3,0.2-0.6,0.3-1,0.3
				c-0.5,0-0.9-0.1-1.3-0.4c-0.3-0.3-0.5-0.7-0.5-1.1c0-0.5,0.2-0.9,0.6-1.1c0.4-0.3,0.9-0.4,1.7-0.4h1v-0.4c0-0.7-0.4-1.1-1.1-1.1
				c-0.3,0-0.6,0.1-0.8,0.2c-0.2,0.1-0.4,0.3-0.5,0.5l-0.7-0.5c0.1-0.3,0.4-0.5,0.7-0.7c0.3-0.2,0.8-0.3,1.3-0.3
				c0.7,0,1.2,0.2,1.5,0.5c0.4,0.3,0.6,0.8,0.6,1.4v2.6h0.6v0.9H362.6z M360.3,154c0.4,0,0.6-0.1,0.9-0.2s0.3-0.4,0.3-0.6v-0.7h-1
				c-0.8,0-1.2,0.2-1.2,0.7v0.2c0,0.2,0.1,0.4,0.2,0.5C359.8,153.9,360,154,360.3,154z"/>
			<path d="M367,154.7c-0.5,0-0.8-0.1-1-0.4c-0.2-0.2-0.3-0.6-0.3-0.9v-3H364v-0.9h1.1c0.2,0,0.3,0,0.4-0.1c0.1-0.1,0.1-0.2,0.1-0.4
				v-1.3h1v1.8h2.2v0.9h-2.2v3.4h2.2v0.9H367z"/>
			<path d="M370.7,153.8h1.8v-3.4h-1.8v-0.9h2.9v4.3h1.6v0.9h-4.5V153.8z M373,148.6c-0.3,0-0.5-0.1-0.6-0.2s-0.2-0.3-0.2-0.4v-0.2
				c0-0.2,0.1-0.3,0.2-0.4s0.3-0.2,0.6-0.2c0.3,0,0.5,0.1,0.6,0.2c0.1,0.1,0.2,0.3,0.2,0.4v0.2c0,0.2-0.1,0.3-0.2,0.4
				C373.4,148.5,373.2,148.6,373,148.6z"/>
			<path d="M378.7,154.8c-0.6,0-1-0.1-1.4-0.3s-0.7-0.4-1-0.7l0.7-0.6c0.2,0.2,0.5,0.4,0.8,0.6s0.6,0.2,1,0.2c0.4,0,0.6-0.1,0.9-0.2
				c0.2-0.1,0.3-0.3,0.3-0.6c0-0.1,0-0.2-0.1-0.3c0-0.1-0.1-0.1-0.2-0.2s-0.2-0.1-0.3-0.1c-0.1,0-0.2,0-0.3-0.1l-0.8-0.1
				c-0.2,0-0.4-0.1-0.6-0.1c-0.2-0.1-0.4-0.1-0.6-0.3c-0.2-0.1-0.3-0.3-0.4-0.4c-0.1-0.2-0.2-0.4-0.2-0.7c0-0.5,0.2-0.9,0.6-1.2
				s0.9-0.4,1.6-0.4c0.5,0,0.9,0.1,1.2,0.2s0.6,0.3,0.9,0.6l-0.6,0.6c-0.1-0.2-0.3-0.3-0.6-0.4c-0.2-0.1-0.6-0.2-1-0.2
				c-0.7,0-1.1,0.2-1.1,0.7c0,0.2,0.1,0.4,0.2,0.5c0.2,0.1,0.3,0.1,0.6,0.2l0.8,0.1c0.2,0,0.4,0.1,0.6,0.1c0.2,0.1,0.4,0.1,0.6,0.2
				c0.2,0.1,0.3,0.3,0.4,0.4c0.1,0.2,0.2,0.4,0.2,0.7c0,0.5-0.2,0.9-0.6,1.2S379.4,154.8,378.7,154.8z"/>
			<path d="M385,154.7c-0.5,0-0.8-0.1-1-0.4c-0.2-0.2-0.3-0.6-0.3-0.9v-3H382v-0.9h1.1c0.2,0,0.3,0,0.4-0.1c0.1-0.1,0.1-0.2,0.1-0.4
				v-1.3h1v1.8h2.2v0.9h-2.2v3.4h2.2v0.9H385z"/>
			<path d="M388.7,153.8h1.8v-3.4h-1.8v-0.9h2.9v4.3h1.6v0.9h-4.5V153.8z M391,148.6c-0.3,0-0.5-0.1-0.6-0.2s-0.2-0.3-0.2-0.4v-0.2
				c0-0.2,0.1-0.3,0.2-0.4s0.3-0.2,0.6-0.2c0.3,0,0.5,0.1,0.6,0.2c0.1,0.1,0.2,0.3,0.2,0.4v0.2c0,0.2-0.1,0.3-0.2,0.4
				C391.4,148.5,391.2,148.6,391,148.6z"/>
			<path d="M396.8,154.8c-0.4,0-0.7-0.1-1-0.2s-0.6-0.3-0.8-0.5c-0.2-0.2-0.4-0.5-0.5-0.8c-0.1-0.3-0.2-0.7-0.2-1.1s0.1-0.8,0.2-1.1
				s0.3-0.6,0.5-0.8c0.2-0.2,0.5-0.4,0.8-0.5c0.3-0.1,0.6-0.2,1-0.2c0.5,0,1,0.1,1.3,0.3c0.3,0.2,0.6,0.5,0.7,0.9l-0.9,0.5
				c-0.1-0.2-0.2-0.4-0.4-0.6c-0.2-0.1-0.4-0.2-0.7-0.2c-0.4,0-0.7,0.1-1,0.4c-0.2,0.3-0.3,0.6-0.3,1v0.9c0,0.4,0.1,0.7,0.3,1
				c0.2,0.3,0.6,0.4,1,0.4c0.3,0,0.6-0.1,0.8-0.2s0.4-0.3,0.5-0.6l0.8,0.5c-0.2,0.4-0.4,0.7-0.8,0.9
				C397.8,154.7,397.4,154.8,396.8,154.8z"/>
			<path d="M402.7,154.8c-0.6,0-1-0.1-1.4-0.3s-0.7-0.4-1-0.7l0.7-0.6c0.2,0.2,0.5,0.4,0.8,0.6s0.6,0.2,1,0.2c0.4,0,0.6-0.1,0.9-0.2
				c0.2-0.1,0.3-0.3,0.3-0.6c0-0.1,0-0.2-0.1-0.3c0-0.1-0.1-0.1-0.2-0.2s-0.2-0.1-0.3-0.1c-0.1,0-0.2,0-0.3-0.1l-0.8-0.1
				c-0.2,0-0.4-0.1-0.6-0.1c-0.2-0.1-0.4-0.1-0.6-0.3c-0.2-0.1-0.3-0.3-0.4-0.4c-0.1-0.2-0.2-0.4-0.2-0.7c0-0.5,0.2-0.9,0.6-1.2
				s0.9-0.4,1.6-0.4c0.5,0,0.9,0.1,1.2,0.2s0.6,0.3,0.9,0.6l-0.6,0.6c-0.1-0.2-0.3-0.3-0.6-0.4c-0.2-0.1-0.6-0.2-1-0.2
				c-0.7,0-1.1,0.2-1.1,0.7c0,0.2,0.1,0.4,0.2,0.5c0.2,0.1,0.3,0.1,0.6,0.2l0.8,0.1c0.2,0,0.4,0.1,0.6,0.1c0.2,0.1,0.4,0.1,0.6,0.2
				c0.2,0.1,0.3,0.3,0.4,0.4c0.1,0.2,0.2,0.4,0.2,0.7c0,0.5-0.2,0.9-0.6,1.2S403.4,154.8,402.7,154.8z"/>
		</g>
	</g>
</g>
<g>
	<ellipse class="st10" cx="375.6" cy="79.5" rx="17.5" ry="11.2"/>
	<g>
		<g>
			<path d="M349.4,49.8h1.4v-3.4h-1.4v-0.9h2.5v1.4h0.1c0-0.2,0.1-0.4,0.2-0.5c0.1-0.2,0.2-0.3,0.3-0.4c0.1-0.1,0.3-0.2,0.5-0.3
				s0.4-0.1,0.7-0.1h0.6v1h-1c-0.4,0-0.7,0.1-1,0.4c-0.3,0.2-0.4,0.6-0.4,1v1.9h1.9v0.9h-4.3V49.8z"/>
			<path d="M357.8,50.9c-0.4,0-0.7-0.1-1.1-0.2c-0.3-0.1-0.6-0.3-0.8-0.5c-0.2-0.2-0.4-0.5-0.5-0.8s-0.2-0.7-0.2-1.1
				c0-0.4,0.1-0.8,0.2-1.1c0.1-0.3,0.3-0.6,0.5-0.9s0.5-0.4,0.8-0.5c0.3-0.1,0.6-0.2,1-0.2c0.4,0,0.7,0.1,1,0.2
				c0.3,0.1,0.5,0.3,0.8,0.5c0.2,0.2,0.4,0.5,0.5,0.8c0.1,0.3,0.2,0.7,0.2,1v0.4h-3.7v0.2c0,0.4,0.1,0.7,0.4,1
				c0.3,0.3,0.6,0.4,1,0.4c0.3,0,0.6-0.1,0.9-0.2c0.2-0.1,0.4-0.3,0.6-0.6l0.7,0.6c-0.2,0.3-0.4,0.6-0.8,0.8S358.3,50.9,357.8,50.9z
				 M357.7,46.3c-0.2,0-0.4,0-0.5,0.1c-0.2,0.1-0.3,0.2-0.4,0.3s-0.2,0.3-0.3,0.4c-0.1,0.2-0.1,0.4-0.1,0.5v0.1h2.6v-0.1
				c0-0.4-0.1-0.7-0.3-1C358.4,46.4,358.1,46.3,357.7,46.3z"/>
			<path d="M365.6,50.7c-0.3,0-0.5-0.1-0.7-0.2c-0.2-0.2-0.3-0.4-0.3-0.6h-0.1c-0.1,0.3-0.3,0.6-0.5,0.7c-0.3,0.2-0.6,0.3-1,0.3
				c-0.5,0-0.9-0.1-1.3-0.4s-0.5-0.7-0.5-1.1c0-0.5,0.2-0.9,0.6-1.1s0.9-0.4,1.7-0.4h1v-0.4c0-0.7-0.4-1.1-1.1-1.1
				c-0.3,0-0.6,0.1-0.8,0.2c-0.2,0.1-0.4,0.3-0.5,0.5l-0.7-0.5c0.1-0.3,0.4-0.5,0.7-0.7c0.3-0.2,0.8-0.3,1.3-0.3
				c0.7,0,1.2,0.2,1.5,0.5c0.4,0.3,0.6,0.8,0.6,1.4v2.6h0.6v0.9H365.6z M363.3,50.1c0.4,0,0.6-0.1,0.9-0.2s0.3-0.4,0.3-0.6v-0.7h-1
				c-0.8,0-1.2,0.2-1.2,0.7v0.2c0,0.2,0.1,0.4,0.2,0.5C362.8,50,363,50.1,363.3,50.1z"/>
			<path d="M367.4,49.8h1.7v-5.6h-1.7v-0.9h2.8v6.5h1.7v0.9h-4.5V49.8z"/>
			<path d="M374.1,48.2v-1.1h3v1.1H374.1z"/>
			<path d="M382,50.7c-0.5,0-0.8-0.1-1-0.4c-0.2-0.2-0.3-0.6-0.3-0.9v-3H379v-0.9h1.1c0.2,0,0.3,0,0.4-0.1s0.1-0.2,0.1-0.4v-1.3h1
				v1.8h2.2v0.9h-2.2v3.4h2.2v0.9H382z"/>
			<path d="M385.7,49.8h1.8v-3.4h-1.8v-0.9h2.9v4.3h1.6v0.9h-4.5V49.8z M388,44.6c-0.3,0-0.5-0.1-0.6-0.2s-0.2-0.3-0.2-0.4v-0.2
				c0-0.2,0.1-0.3,0.2-0.4s0.3-0.2,0.6-0.2c0.3,0,0.5,0.1,0.6,0.2c0.1,0.1,0.2,0.3,0.2,0.4V44c0,0.2-0.1,0.3-0.2,0.4
				C388.4,44.6,388.2,44.6,388,44.6z"/>
			<path d="M391.1,50.7v-5.2h0.9v0.7h0c0.1-0.2,0.2-0.4,0.3-0.6c0.1-0.2,0.4-0.2,0.6-0.2c0.3,0,0.5,0.1,0.6,0.2
				c0.2,0.2,0.2,0.4,0.3,0.6h0c0.1-0.2,0.2-0.4,0.4-0.6c0.2-0.2,0.4-0.2,0.7-0.2c0.4,0,0.7,0.1,0.8,0.4c0.2,0.3,0.2,0.7,0.2,1.2v3.6
				h-0.9v-3.5c0-0.4,0-0.6-0.1-0.7s-0.2-0.2-0.4-0.2c-0.2,0-0.3,0.1-0.4,0.2c-0.1,0.1-0.2,0.3-0.2,0.5v3.7h-0.9v-3.5
				c0-0.4,0-0.6-0.1-0.7s-0.2-0.2-0.4-0.2c-0.2,0-0.3,0.1-0.4,0.2c-0.1,0.1-0.2,0.3-0.2,0.5v3.7H391.1z"/>
			<path d="M399.8,50.9c-0.4,0-0.7-0.1-1.1-0.2c-0.3-0.1-0.6-0.3-0.8-0.5c-0.2-0.2-0.4-0.5-0.5-0.8s-0.2-0.7-0.2-1.1
				c0-0.4,0.1-0.8,0.2-1.1c0.1-0.3,0.3-0.6,0.5-0.9s0.5-0.4,0.8-0.5c0.3-0.1,0.6-0.2,1-0.2c0.4,0,0.7,0.1,1,0.2
				c0.3,0.1,0.5,0.3,0.8,0.5c0.2,0.2,0.4,0.5,0.5,0.8c0.1,0.3,0.2,0.7,0.2,1v0.4h-3.7v0.2c0,0.4,0.1,0.7,0.4,1
				c0.3,0.3,0.6,0.4,1,0.4c0.3,0,0.6-0.1,0.9-0.2c0.2-0.1,0.4-0.3,0.6-0.6l0.7,0.6c-0.2,0.3-0.4,0.6-0.8,0.8S400.3,50.9,399.8,50.9z
				 M399.7,46.3c-0.2,0-0.4,0-0.5,0.1c-0.2,0.1-0.3,0.2-0.4,0.3s-0.2,0.3-0.3,0.4c-0.1,0.2-0.1,0.4-0.1,0.5v0.1h2.6v-0.1
				c0-0.4-0.1-0.7-0.3-1C400.4,46.4,400.1,46.3,399.7,46.3z"/>
			<path d="M348.7,62.9c-0.6,0-1-0.1-1.4-0.3c-0.4-0.2-0.7-0.4-1-0.7l0.7-0.6c0.2,0.2,0.5,0.4,0.8,0.6c0.3,0.1,0.6,0.2,1,0.2
				c0.4,0,0.6-0.1,0.9-0.2c0.2-0.1,0.3-0.3,0.3-0.6c0-0.1,0-0.2-0.1-0.3c0-0.1-0.1-0.1-0.2-0.2c-0.1,0-0.2-0.1-0.3-0.1
				c-0.1,0-0.2,0-0.3-0.1l-0.8-0.1c-0.2,0-0.4-0.1-0.6-0.1s-0.4-0.1-0.6-0.3c-0.2-0.1-0.3-0.3-0.4-0.4s-0.2-0.4-0.2-0.7
				c0-0.5,0.2-0.9,0.6-1.2c0.4-0.3,0.9-0.4,1.6-0.4c0.5,0,0.9,0.1,1.2,0.2s0.6,0.3,0.9,0.6l-0.6,0.6c-0.1-0.2-0.3-0.3-0.6-0.4
				c-0.2-0.1-0.6-0.2-1-0.2c-0.7,0-1.1,0.2-1.1,0.7c0,0.2,0.1,0.4,0.2,0.5c0.2,0.1,0.3,0.1,0.6,0.2l0.8,0.1c0.2,0,0.4,0.1,0.6,0.1
				c0.2,0.1,0.4,0.1,0.6,0.2c0.2,0.1,0.3,0.3,0.4,0.4s0.2,0.4,0.2,0.7c0,0.5-0.2,0.9-0.6,1.2C349.9,62.7,349.4,62.9,348.7,62.9z"/>
			<path d="M355,62.7c-0.5,0-0.8-0.1-1-0.4c-0.2-0.2-0.3-0.6-0.3-0.9v-3H352v-0.9h1.1c0.2,0,0.3,0,0.4-0.1s0.1-0.2,0.1-0.4v-1.3h1
				v1.8h2.2v0.9h-2.2v3.4h2.2v0.9H355z"/>
			<path d="M362.6,62.7c-0.3,0-0.5-0.1-0.7-0.2c-0.2-0.2-0.3-0.4-0.3-0.6h-0.1c-0.1,0.3-0.3,0.6-0.5,0.7c-0.3,0.2-0.6,0.3-1,0.3
				c-0.5,0-0.9-0.1-1.3-0.4s-0.5-0.7-0.5-1.1c0-0.5,0.2-0.9,0.6-1.1s0.9-0.4,1.7-0.4h1v-0.4c0-0.7-0.4-1.1-1.1-1.1
				c-0.3,0-0.6,0.1-0.8,0.2c-0.2,0.1-0.4,0.3-0.5,0.5l-0.7-0.5c0.1-0.3,0.4-0.5,0.7-0.7c0.3-0.2,0.8-0.3,1.3-0.3
				c0.7,0,1.2,0.2,1.5,0.5c0.4,0.3,0.6,0.8,0.6,1.4v2.6h0.6v0.9H362.6z M360.3,62.1c0.4,0,0.6-0.1,0.9-0.2s0.3-0.4,0.3-0.6v-0.7h-1
				c-0.8,0-1.2,0.2-1.2,0.7v0.2c0,0.2,0.1,0.4,0.2,0.5C359.8,62,360,62.1,360.3,62.1z"/>
			<path d="M367,62.7c-0.5,0-0.8-0.1-1-0.4c-0.2-0.2-0.3-0.6-0.3-0.9v-3H364v-0.9h1.1c0.2,0,0.3,0,0.4-0.1s0.1-0.2,0.1-0.4v-1.3h1
				v1.8h2.2v0.9h-2.2v3.4h2.2v0.9H367z"/>
			<path d="M370.7,61.8h1.8v-3.4h-1.8v-0.9h2.9v4.3h1.6v0.9h-4.5V61.8z M373,56.6c-0.3,0-0.5-0.1-0.6-0.2s-0.2-0.3-0.2-0.4v-0.2
				c0-0.2,0.1-0.3,0.2-0.4s0.3-0.2,0.6-0.2c0.3,0,0.5,0.1,0.6,0.2c0.1,0.1,0.2,0.3,0.2,0.4V56c0,0.2-0.1,0.3-0.2,0.4
				C373.4,56.6,373.2,56.6,373,56.6z"/>
			<path d="M378.7,62.9c-0.6,0-1-0.1-1.4-0.3c-0.4-0.2-0.7-0.4-1-0.7l0.7-0.6c0.2,0.2,0.5,0.4,0.8,0.6c0.3,0.1,0.6,0.2,1,0.2
				c0.4,0,0.6-0.1,0.9-0.2c0.2-0.1,0.3-0.3,0.3-0.6c0-0.1,0-0.2-0.1-0.3c0-0.1-0.1-0.1-0.2-0.2c-0.1,0-0.2-0.1-0.3-0.1
				c-0.1,0-0.2,0-0.3-0.1l-0.8-0.1c-0.2,0-0.4-0.1-0.6-0.1s-0.4-0.1-0.6-0.3c-0.2-0.1-0.3-0.3-0.4-0.4s-0.2-0.4-0.2-0.7
				c0-0.5,0.2-0.9,0.6-1.2c0.4-0.3,0.9-0.4,1.6-0.4c0.5,0,0.9,0.1,1.2,0.2s0.6,0.3,0.9,0.6l-0.6,0.6c-0.1-0.2-0.3-0.3-0.6-0.4
				c-0.2-0.1-0.6-0.2-1-0.2c-0.7,0-1.1,0.2-1.1,0.7c0,0.2,0.1,0.4,0.2,0.5c0.2,0.1,0.3,0.1,0.6,0.2l0.8,0.1c0.2,0,0.4,0.1,0.6,0.1
				c0.2,0.1,0.4,0.1,0.6,0.2c0.2,0.1,0.3,0.3,0.4,0.4s0.2,0.4,0.2,0.7c0,0.5-0.2,0.9-0.6,1.2C379.9,62.7,379.4,62.9,378.7,62.9z"/>
			<path d="M385,62.7c-0.5,0-0.8-0.1-1-0.4c-0.2-0.2-0.3-0.6-0.3-0.9v-3H382v-0.9h1.1c0.2,0,0.3,0,0.4-0.1s0.1-0.2,0.1-0.4v-1.3h1
				v1.8h2.2v0.9h-2.2v3.4h2.2v0.9H385z"/>
			<path d="M388.7,61.8h1.8v-3.4h-1.8v-0.9h2.9v4.3h1.6v0.9h-4.5V61.8z M391,56.6c-0.3,0-0.5-0.1-0.6-0.2s-0.2-0.3-0.2-0.4v-0.2
				c0-0.2,0.1-0.3,0.2-0.4s0.3-0.2,0.6-0.2c0.3,0,0.5,0.1,0.6,0.2c0.1,0.1,0.2,0.3,0.2,0.4V56c0,0.2-0.1,0.3-0.2,0.4
				C391.4,56.6,391.2,56.6,391,56.6z"/>
			<path d="M396.8,62.9c-0.4,0-0.7-0.1-1-0.2c-0.3-0.1-0.6-0.3-0.8-0.5c-0.2-0.2-0.4-0.5-0.5-0.9s-0.2-0.7-0.2-1.1
				c0-0.4,0.1-0.8,0.2-1.1c0.1-0.3,0.3-0.6,0.5-0.8c0.2-0.2,0.5-0.4,0.8-0.5c0.3-0.1,0.6-0.2,1-0.2c0.5,0,1,0.1,1.3,0.3
				s0.6,0.5,0.7,0.9l-0.9,0.5c-0.1-0.2-0.2-0.4-0.4-0.6c-0.2-0.1-0.4-0.2-0.7-0.2c-0.4,0-0.7,0.1-1,0.4c-0.2,0.3-0.3,0.6-0.3,1v0.9
				c0,0.4,0.1,0.7,0.3,1c0.2,0.3,0.6,0.4,1,0.4c0.3,0,0.6-0.1,0.8-0.2c0.2-0.1,0.4-0.3,0.5-0.6l0.8,0.5c-0.2,0.4-0.4,0.7-0.8,0.9
				C397.8,62.7,397.4,62.9,396.8,62.9z"/>
			<path d="M402.7,62.9c-0.6,0-1-0.1-1.4-0.3c-0.4-0.2-0.7-0.4-1-0.7l0.7-0.6c0.2,0.2,0.5,0.4,0.8,0.6c0.3,0.1,0.6,0.2,1,0.2
				c0.4,0,0.6-0.1,0.9-0.2c0.2-0.1,0.3-0.3,0.3-0.6c0-0.1,0-0.2-0.1-0.3c0-0.1-0.1-0.1-0.2-0.2c-0.1,0-0.2-0.1-0.3-0.1
				c-0.1,0-0.2,0-0.3-0.1l-0.8-0.1c-0.2,0-0.4-0.1-0.6-0.1s-0.4-0.1-0.6-0.3c-0.2-0.1-0.3-0.3-0.4-0.4s-0.2-0.4-0.2-0.7
				c0-0.5,0.2-0.9,0.6-1.2c0.4-0.3,0.9-0.4,1.6-0.4c0.5,0,0.9,0.1,1.2,0.2s0.6,0.3,0.9,0.6l-0.6,0.6c-0.1-0.2-0.3-0.3-0.6-0.4
				c-0.2-0.1-0.6-0.2-1-0.2c-0.7,0-1.1,0.2-1.1,0.7c0,0.2,0.1,0.4,0.2,0.5c0.2,0.1,0.3,0.1,0.6,0.2l0.8,0.1c0.2,0,0.4,0.1,0.6,0.1
				c0.2,0.1,0.4,0.1,0.6,0.2c0.2,0.1,0.3,0.3,0.4,0.4s0.2,0.4,0.2,0.7c0,0.5-0.2,0.9-0.6,1.2C403.9,62.7,403.4,62.9,402.7,62.9z"/>
		</g>
	</g>
</g>
<g>
	<g>
		<path class="st11" d="M44.2,98.2c0,0,12.3,0,25,0c7.4,0,7.4,20.7,15,20.7c5,0,16.9,0,22.2,0"/>
		<g>
			<path d="M106.3,121.8c1.6,0,2.8-1.3,2.8-2.8c0-1.6-1.3-2.8-2.8-2.8c-1.6,0-2.8,1.3-2.8,2.8C103.5,120.5,104.7,121.8,106.3,121.8z
				"/>
		</g>
	</g>
</g>
<g>
	<g>
		<line class="st11" x1="144.1" y1="118.9" x2="171.4" y2="118.9"/>
		<g>
			<path d="M171.3,121.8c1.6,0,2.8-1.3,2.8-2.8c0-1.6-1.3-2.8-2.8-2.8c-1.6,0-2.8,1.3-2.8,2.8C168.5,120.5,169.7,121.8,171.3,121.8z
				"/>
		</g>
	</g>
</g>
<g>
	<g>
		<line class="st11" x1="126.6" y1="107.7" x2="126.6" y2="93.4"/>
		<g>
			<path d="M129.4,93.6c0-1.6-1.3-2.8-2.8-2.8s-2.8,1.3-2.8,2.8c0,1.6,1.3,2.8,2.8,2.8S129.4,95.1,129.4,93.6z"/>
		</g>
	</g>
</g>
<line class="st1" x1="191.6" y1="107.7" x2="191.6" y2="90.7"/>
<line class="st1" x1="144.1" y1="79.5" x2="174.1" y2="79.5"/>
<g>
	<g>
		<line class="st11" x1="283.7" y1="220.5" x2="283.7" y2="114.2"/>
		<g>
			<path d="M286.6,114.4c0-1.6-1.3-2.8-2.8-2.8c-1.6,0-2.8,1.3-2.8,2.8c0,1.6,1.3,2.8,2.8,2.8S286.6,115.9,286.6,114.4z"/>
		</g>
	</g>
</g>
<g>
	<g>
		<path class="st11" d="M459.3,99.7c0,0,1.7,0-25,0c-8,0-8.1,19.2-16.1,19.2c-13.2,0-19.4,0-22.4,0"/>
		<g>
			<path d="M396,116.1c-1.6,0-2.8,1.3-2.8,2.8s1.3,2.8,2.8,2.8c1.6,0,2.8-1.3,2.8-2.8S397.5,116.1,396,116.1z"/>
		</g>
	</g>
</g>
<g>
	<g>
		<path class="st11" d="M459.3,99.7c0,0,1.7,0-25,0c-8,0-8.1-20.2-16.1-20.2c-13.2,0-19.4,0-22.4,0"/>
		<g>
			<path d="M396,76.7c-1.6,0-2.8,1.3-2.8,2.8c0,1.6,1.3,2.8,2.8,2.8c1.6,0,2.8-1.3,2.8-2.8S397.5,76.7,396,76.7z"/>
		</g>
	</g>
</g>
<g>
	<g>
		<path class="st11" d="M209.1,79.5h15.8c12.8,0,12.8,20.8,25.7,20.8h10.3"/>
		<g>
			<polygon points="259.8,104.1 266.2,100.3 259.8,96.6 			"/>
		</g>
	</g>
</g>
<g>
	<g>
		<path class="st11" d="M266.2,100.3h-15.7c-12.9,0-12.9,18.6-25.7,18.6h-10.4"/>
		<g>
			<polygon points="215.6,115.2 209.1,118.9 215.6,122.7 			"/>
		</g>
	</g>
</g>
<g>
	<g>
		<path class="st11" d="M353,79.5h-10.4c-12.8,0-12.8,20.8-25.7,20.8h-15.7"/>
		<g>
			<polygon points="351.9,75.7 358.4,79.5 351.9,83.2 			"/>
		</g>
	</g>
</g>
<g>
	<g>
		<path class="st11" d="M301.2,100.3h15.7c12.9,0,12.9,18.6,25.7,18.6H353"/>
		<g>
			<polygon points="351.9,122.7 358.4,118.9 351.9,115.2 			"/>
		</g>
	</g>
</g>
</svg>
